<?xml version="1.0" encoding="UTF-8" standalone="no"?>
<!-- Created with Inkscape (http://www.inkscape.org/) -->

<svg
   version="1.1"
   id="svg2"
   width="2493.3333"
   height="1496"
   viewBox="0 0 2493.3333 1496"
   sodipodi:docname="17851.eps"
   xmlns:inkscape="http://www.inkscape.org/namespaces/inkscape"
   xmlns:sodipodi="http://sodipodi.sourceforge.net/DTD/sodipodi-0.dtd"
   xmlns="http://www.w3.org/2000/svg"
   xmlns:svg="http://www.w3.org/2000/svg">
  <defs
     id="defs6">
    <clipPath
       clipPathUnits="userSpaceOnUse"
       id="clipPath180">
      <path
         d="m 17732.8,8233.23 c -84.4,-47.77 -201.1,-83.62 -328.6,-100.93 -127.6,-17.29 -249.6,-13.82 -343.7,9.75 -80.8,20.28 -132.1,54.05 -137,90.33 -4.9,36.29 35.5,82.48 108,123.57 84.4,47.78 201.1,83.63 328.6,100.92 127.6,17.31 249.6,13.84 343.7,-9.74 80.9,-20.27 132.1,-54.04 137,-90.33 4.9,-36.28 -35.4,-82.48 -108,-123.57 z m 279.3,-1139.55 c -28.2,16.05 -62.9,29.38 -103.4,39.54 -102.6,25.74 -234.2,29.73 -370.5,11.24 -136.4,-18.48 -262.1,-57.38 -354.2,-109.53 -36.4,-20.59 -66.2,-42.67 -89.2,-65.66 l -155,1143.27 c 28.2,-16.05 62.9,-29.39 103.4,-39.54 102.6,-25.74 234.2,-29.75 370.5,-11.25 136.3,18.48 262.1,57.39 354.2,109.54 36.4,20.58 66.2,42.67 89.2,65.65 z m -91.7,-243.42 c -84.4,-47.78 -201.1,-83.63 -328.7,-100.92 -127.5,-17.3 -249.6,-13.84 -343.6,9.74 -80.9,20.29 -132.1,54.05 -137,90.33 -4.9,36.29 35.4,82.48 108,123.57 84.4,47.79 201.1,83.63 328.6,100.93 127.6,17.3 249.6,13.84 343.7,-9.75 80.8,-20.27 132,-54.04 137,-90.33 4.9,-36.29 -35.5,-82.48 -108,-123.57 z m -199.3,1665.94 c -102.6,25.74 -234.2,29.73 -370.5,11.24 -136.3,-18.48 -262.1,-57.38 -354.2,-109.53 -101.7,-57.63 -152.7,-126.92 -143.4,-195.1 l 187.5,-1382.97 c 9.3,-68.17 76.8,-121.38 190.3,-149.82 102.6,-25.74 234.2,-29.74 370.5,-11.25 136.3,18.49 262.1,57.39 354.2,109.54 101.7,57.63 152.7,126.91 143.4,195.09 l -187.5,1382.97 c -9.3,68.17 -76.8,121.38 -190.3,149.83 z"
         id="path178" />
    </clipPath>
    <linearGradient
       x1="0"
       y1="0"
       x2="1"
       y2="0"
       gradientUnits="userSpaceOnUse"
       gradientTransform="matrix(3358.4,455.498,455.498,-3358.4,16938.1,7530.16)"
       spreadMethod="pad"
       id="linearGradient188">
      <stop
         style="stop-opacity:1;stop-color:#e9b656"
         offset="0"
         id="stop182" />
      <stop
         style="stop-opacity:1;stop-color:#e9b656"
         offset="0.3182438"
         id="stop184" />
      <stop
         style="stop-opacity:1;stop-color:#272525"
         offset="1"
         id="stop186" />
    </linearGradient>
  </defs>
  <sodipodi:namedview
     id="namedview4"
     pagecolor="#ffffff"
     bordercolor="#000000"
     borderopacity="0.25"
     inkscape:showpageshadow="2"
     inkscape:pageopacity="0.0"
     inkscape:pagecheckerboard="0"
     inkscape:deskcolor="#d1d1d1" />
  <g
     id="g8"
     inkscape:groupmode="layer"
     inkscape:label="ink_ext_XXXXXX"
     transform="matrix(1.3333333,0,0,-1.3333333,0,1496)">
    <g
       id="g10"
       transform="scale(0.1)">
      <path
         d="M 0,0 H 18700 V 11220 H 0 Z"
         style="fill:#f4f6f8;fill-opacity:1;fill-rule:nonzero;stroke:none"
         id="path12" />
      <path
         d="m 1277.21,9965.54 c -336.565,0 -610.374,-273.81 -610.374,-610.37 0,-336.56 273.809,-610.37 610.374,-610.37 336.55,0 610.37,273.81 610.37,610.37 0,336.56 -273.82,610.37 -610.37,610.37 z m 0,-1287.57 c -373.421,0 -677.21,303.79 -677.21,677.2 0,373.41 303.789,677.23 677.21,677.23 373.41,0 677.2,-303.82 677.2,-677.23 0,-373.41 -303.79,-677.2 -677.2,-677.2"
         style="fill:#cfd1d2;fill-opacity:1;fill-rule:nonzero;stroke:none"
         id="path14" />
      <path
         d="M 5112.71,964.602 H 3358.67 V 2718.58 H 5112.71 V 964.602"
         style="fill:#dfe3e8;fill-opacity:1;fill-rule:nonzero;stroke:none"
         id="path16" />
      <path
         d="m 13570.7,8709.5 c 0,293.84 238.2,532.03 532,532.03 293.9,0 532.1,-238.19 532.1,-532.03 0,-293.83 -238.2,-532.02 -532.1,-532.02 -293.8,0 -532,238.19 -532,532.02"
         style="fill:#dfaaae;fill-opacity:1;fill-rule:nonzero;stroke:none"
         id="path18" />
      <path
         d="m 14706.3,8747.69 c 0.8,-12.63 1.2,-25.36 1.2,-38.19 0,-334 -270.8,-604.77 -604.8,-604.77 -334,0 -604.8,270.77 -604.8,604.77 0,334.02 270.8,604.79 604.8,604.79 v 397.39 c -553.5,0 -1002.2,-448.69 -1002.2,-1002.18 0,-553.47 448.7,-1002.17 1002.2,-1002.17 553.5,0 1002.2,448.7 1002.2,1002.17 0,12.79 -0.3,25.51 -0.8,38.19 h -397.8"
         style="fill:#dfaaae;fill-opacity:1;fill-rule:nonzero;stroke:none"
         id="path20" />
      <path
         d="m 9573.49,9566.83 c -536.34,0 -1056.61,-105.04 -1546.35,-312.18 -473.06,-200.1 -897.92,-486.54 -1262.79,-851.4 -364.85,-364.86 -651.3,-789.72 -851.39,-1262.78 -207.14,-489.75 -312.18,-1010.02 -312.18,-1546.35 0,-536.33 105.04,-1056.59 312.18,-1546.34 200.09,-473.06 486.54,-897.93 851.39,-1262.78 364.87,-364.86 789.73,-651.31 1262.79,-851.4 489.74,-207.14 1010.02,-312.17 1546.35,-312.17 536.31,0 1056.61,105.03 1546.31,312.17 473.1,200.09 898,486.54 1262.8,851.4 364.9,364.85 651.3,789.72 851.4,1262.78 207.2,489.75 312.2,1010.01 312.2,1546.34 0,536.33 -105,1056.6 -312.2,1546.35 -200.1,473.06 -486.5,897.92 -851.4,1262.78 -364.8,364.86 -789.7,651.3 -1262.8,851.4 -489.7,207.14 -1010,312.18 -1546.31,312.18 m 0,-8018.17 c -546.12,0 -1075.93,106.96 -1574.69,317.93 -481.74,203.76 -914.38,495.44 -1285.89,866.96 -371.53,371.52 -663.2,804.15 -866.96,1285.89 -210.96,498.76 -317.93,1028.57 -317.93,1574.68 0,546.12 106.97,1075.93 317.93,1574.7 203.76,481.73 495.43,914.36 866.96,1285.88 371.51,371.52 804.15,663.2 1285.89,866.96 498.76,210.96 1028.57,317.93 1574.69,317.93 546.11,0 1075.91,-106.97 1574.71,-317.93 481.7,-203.76 914.3,-495.44 1285.9,-866.96 371.5,-371.52 663.2,-804.15 866.9,-1285.88 211,-498.77 318,-1028.58 318,-1574.7 0,-546.11 -107,-1075.92 -318,-1574.68 -203.7,-481.74 -495.4,-914.37 -866.9,-1285.89 -371.6,-371.52 -804.2,-663.2 -1285.9,-866.96 -498.8,-210.97 -1028.6,-317.93 -1574.71,-317.93"
         style="fill:#cfd1d2;fill-opacity:1;fill-rule:nonzero;stroke:none"
         id="path22" />
      <path
         d="m 9573.49,2094.35 c -472.45,0 -930.79,92.53 -1362.29,275.04 -416.76,176.27 -791.03,428.62 -1112.43,750.02 -321.41,321.4 -573.74,695.68 -750.02,1112.43 -182.51,431.49 -275.04,889.83 -275.04,1362.28 0,472.45 92.53,930.79 275.04,1362.29 176.28,416.75 428.61,791.03 750.02,1112.44 321.4,321.39 695.67,573.74 1112.43,750.01 431.5,182.51 889.84,275.05 1362.29,275.05 472.41,0 930.81,-92.54 1362.31,-275.05 416.7,-176.27 791,-428.62 1112.4,-750.01 321.4,-321.41 573.7,-695.69 750,-1112.44 182.5,-431.5 275.1,-889.84 275.1,-1362.29 h -72.8 c 0,462.67 -90.6,911.47 -269.3,1333.95 -172.6,408.07 -419.7,774.59 -734.5,1089.32 -314.7,314.75 -681.2,561.85 -1089.3,734.46 -422.5,178.69 -871.3,269.29 -1333.91,269.29 -462.67,0 -911.47,-90.6 -1333.94,-269.29 -408.09,-172.61 -774.59,-419.71 -1089.34,-734.46 -314.73,-314.73 -561.84,-681.25 -734.45,-1089.32 -178.69,-422.48 -269.3,-871.28 -269.3,-1333.95 0,-462.66 90.61,-911.46 269.3,-1333.93 172.61,-408.09 419.72,-774.58 734.45,-1089.33 314.75,-314.74 681.25,-561.85 1089.34,-734.45 422.47,-178.7 871.27,-269.3 1333.94,-269.3 v -72.76"
         style="fill:#cfd1d2;fill-opacity:1;fill-rule:nonzero;stroke:none"
         id="path24" />
      <path
         d="m 9573.49,1796.7 c -512.64,0 -1009.95,100.41 -1478.15,298.44 -452.19,191.26 -858.31,465.07 -1207.04,813.81 -348.74,348.72 -622.54,754.84 -813.81,1207.04 -198.02,468.19 -298.43,965.51 -298.43,1478.13 h 72.76 c 0,-502.84 98.47,-990.62 292.69,-1449.79 187.59,-443.53 456.16,-841.86 798.24,-1183.94 342.08,-342.07 740.42,-610.64 1183.93,-798.24 459.17,-194.21 946.96,-292.69 1449.81,-292.69 502.81,0 990.61,98.48 1449.81,292.69 443.5,187.6 841.8,456.17 1183.9,798.24 342.1,342.08 610.7,740.41 798.3,1183.94 194.2,459.17 292.6,946.95 292.6,1449.79 0,502.85 -98.4,990.63 -292.6,1449.8 -187.6,443.52 -456.2,841.86 -798.3,1183.94 -342.1,342.08 -740.4,610.64 -1183.9,798.24 -459.2,194.21 -947,292.69 -1449.81,292.69 v 72.76 c 512.61,0 1009.91,-100.41 1478.11,-298.44 452.2,-191.25 858.3,-465.06 1207.1,-813.79 348.7,-348.75 622.5,-754.86 813.8,-1207.05 198,-468.2 298.4,-965.51 298.4,-1478.15 0,-512.62 -100.4,-1009.94 -298.4,-1478.13 -191.3,-452.2 -465.1,-858.32 -813.8,-1207.04 -348.8,-348.74 -754.9,-622.55 -1207.1,-813.81 -468.2,-198.03 -965.5,-298.44 -1478.11,-298.44"
         style="fill:#cfd1d2;fill-opacity:1;fill-rule:nonzero;stroke:none"
         id="path26" />
      <path
         d="m 9431.58,9460.69 c -58.18,0 -105.52,-47.34 -105.52,-105.52 0,-58.18 47.34,-105.52 105.52,-105.52 58.19,0 105.52,47.34 105.52,105.52 0,58.18 -47.33,105.52 -105.52,105.52 z m 0,-283.8 c -98.3,0 -178.28,79.98 -178.28,178.28 0,98.31 79.98,178.28 178.28,178.28 98.31,0 178.28,-79.97 178.28,-178.28 0,-98.3 -79.97,-178.28 -178.28,-178.28"
         style="fill:#cfd1d2;fill-opacity:1;fill-rule:nonzero;stroke:none"
         id="path28" />
      <path
         d="m 13036.9,5557.74 c -58.2,0 -105.5,-47.33 -105.5,-105.51 0,-58.19 47.3,-105.52 105.5,-105.52 58.2,0 105.5,47.33 105.5,105.52 0,58.18 -47.3,105.51 -105.5,105.51 z m 0,-283.79 c -98.3,0 -178.3,79.97 -178.3,178.28 0,98.3 80,178.28 178.3,178.28 98.3,0 178.3,-79.98 178.3,-178.28 0,-98.31 -80,-178.28 -178.3,-178.28"
         style="fill:#cfd1d2;fill-opacity:1;fill-rule:nonzero;stroke:none"
         id="path30" />
      <path
         d="m 9700.8,2255.71 c -58.18,0 -105.52,-47.34 -105.52,-105.51 0,-58.19 47.34,-105.52 105.52,-105.52 58.18,0 105.52,47.33 105.52,105.52 0,58.17 -47.34,105.51 -105.52,105.51 z m 0,-283.8 c -98.31,0 -178.28,79.97 -178.28,178.29 0,98.3 79.97,178.28 178.28,178.28 98.3,0 178.28,-79.98 178.28,-178.28 0,-98.32 -79.98,-178.29 -178.28,-178.29"
         style="fill:#cfd1d2;fill-opacity:1;fill-rule:nonzero;stroke:none"
         id="path32" />
      <path
         d="m 5819.72,5821.02 c -58.19,0 -105.52,-47.35 -105.52,-105.52 0,-58.19 47.33,-105.52 105.52,-105.52 58.18,0 105.51,47.33 105.51,105.52 0,58.17 -47.33,105.52 -105.51,105.52 z m 0,-283.8 c -98.3,0 -178.28,79.97 -178.28,178.28 0,98.3 79.98,178.27 178.28,178.27 98.31,0 178.28,-79.97 178.28,-178.27 0,-98.31 -79.97,-178.28 -178.28,-178.28"
         style="fill:#cfd1d2;fill-opacity:1;fill-rule:nonzero;stroke:none"
         id="path34" />
      <path
         d="m 13062.1,5545.89 -51,0.62 c 0.2,14.44 0.3,28.89 0.3,43.35 h 51 c 0,-14.67 -0.1,-29.32 -0.3,-43.97"
         style="fill:#cfd1d2;fill-opacity:1;fill-rule:nonzero;stroke:none"
         id="path36" />
      <path
         d="m 13055.5,5368.29 -50.9,3.17 c 1.8,29 3.3,58.42 4.4,87.47 l 50.9,-1.9 c -1.1,-29.46 -2.6,-59.32 -4.4,-88.74 z m -15.6,-177.05 -50.6,5.74 c 3.3,28.71 6.2,58.03 8.8,87.14 l 50.7,-4.44 c -2.6,-29.54 -5.5,-59.3 -8.9,-88.44 z m -24.4,-176.02 -50.2,8.29 c 4.7,28.59 9.1,57.72 13.1,86.58 l 50.4,-7 c -4,-29.29 -8.5,-58.84 -13.3,-87.87 z m -33.3,-174.57 -49.8,10.81 c 6.2,28.6 12.1,57.47 17.5,85.81 l 50,-9.56 c -5.5,-28.76 -11.4,-58.05 -17.7,-87.06 z M 12940,4668 l -49.2,13.35 c 7.6,28.03 15,56.56 21.9,84.79 l 49.4,-12.09 c -7,-28.65 -14.4,-57.6 -22.1,-86.05 z m -51.1,-170.58 -48.4,15.85 c 9.1,27.71 17.9,55.92 26.3,83.87 l 48.7,-14.61 c -8.4,-28.36 -17.4,-56.99 -26.6,-85.11 z m -59.8,-167.97 -47.5,18.31 c 10.5,27.29 20.7,55 30.5,82.37 l 47.9,-17.08 c -9.8,-27.78 -20.2,-55.89 -30.9,-83.6 z m -68.3,-164.61 -46.5,20.72 c 11.8,26.66 23.5,53.8 34.6,80.66 l 47.1,-19.52 c -11.3,-27.26 -23.2,-54.8 -35.2,-81.86 z m -76.6,-160.83 -45.4,23.06 c 13.2,26.05 26.3,52.55 38.7,78.74 l 46,-21.88 c -12.6,-26.6 -25.9,-53.48 -39.3,-79.92 z m -84.6,-156.65 -44.2,25.35 c 14.5,25.17 28.8,50.96 42.7,76.64 l 44.8,-24.21 c -14.1,-26.06 -28.6,-52.23 -43.3,-77.78 z m -92.4,-152.11 -42.9,27.54 c 15.8,24.47 31.4,49.49 46.5,74.37 l 43.5,-26.46 c -15.3,-25.24 -31.2,-50.62 -47.1,-75.45 z m -100,-147.15 -41.4,29.67 c 17,23.76 33.9,47.95 50.2,71.89 l 42.1,-28.62 c -16.5,-24.3 -33.6,-48.84 -50.9,-72.94 z m -107.3,-141.88 -39.8,31.73 c 18.1,22.69 36.2,45.99 53.7,69.24 l 40.7,-30.72 c -17.9,-23.59 -36.2,-47.23 -54.6,-70.25 z m -114.2,-136.24 -38.2,33.7 c 19.2,21.75 38.4,44.09 57.1,66.42 l 39.1,-32.74 c -19,-22.64 -38.5,-45.31 -58,-67.38 z m -120.9,-130.27 -36.5,35.58 c 20.3,20.79 40.6,42.14 60.4,63.44 l 37.3,-34.65 c -20,-21.62 -40.6,-43.27 -61.2,-64.37 z m -127.3,-123.97 -34.6,37.38 c 21.2,19.63 42.6,39.92 63.5,60.29 l 35.5,-36.49 c -21.2,-20.66 -42.9,-41.25 -64.4,-61.18 z m -133.3,-117.38 -32.7,39.07 c 22.3,18.68 44.7,37.85 66.4,57 l 33.7,-38.22 c -22.1,-19.43 -44.8,-38.9 -67.4,-57.85 z m -139.1,-110.48 -30.6,40.66 c 23.2,17.51 46.5,35.54 69.1,53.58 l 31.7,-39.87 c -23,-18.3 -46.6,-36.6 -70.2,-54.37 z m -144.3,-103.29 -28.6,42.15 c 24.1,16.32 48.2,33.14 71.8,50 l 29.6,-41.43 c -23.9,-17.11 -48.4,-34.17 -72.8,-50.72 z m -149.3,-95.83 -26.5,43.54 c 24.7,14.98 49.7,30.55 74.2,46.29 l 27.5,-42.86 c -24.9,-15.97 -50.2,-31.77 -75.2,-46.97 z m -154,-88.14 -24.1,44.84 c 25.4,13.71 51.1,28 76.3,42.45 l 25.3,-44.2 c -25.6,-14.67 -51.7,-29.17 -77.5,-43.09 z m -158.1,-80.17 -21.9,46 c 26.3,12.48 52.7,25.42 78.4,38.51 l 23.1,-45.43 c -26.2,-13.27 -53,-26.41 -79.6,-39.08 z m -161.9,-72.02 -19.5,47.04 c 26.8,11.1 53.8,22.7 80.2,34.47 l 20.7,-46.54 c -26.8,-11.94 -54.2,-23.7 -81.4,-34.97 z m -165.5,-63.78 -17.1,47.98 c 27.2,9.71 54.9,19.95 82.1,30.44 l 18.3,-47.53 c -27.6,-10.65 -55.7,-21.03 -83.3,-30.89 z m -169,-55.34 -14.6,48.79 c 27.8,8.3 55.9,17.11 83.6,26.2 l 15.9,-48.4 c -28.2,-9.23 -56.7,-18.18 -84.9,-26.59 z m -171.4,-46.66 -12.1,49.47 c 28.3,6.94 56.8,14.32 84.7,21.9 l 13.4,-49.14 c -28.3,-7.7 -57.3,-15.18 -86,-22.23 z m -173.7,-37.86 -9.6,50.03 c 28.6,5.46 57.4,11.36 85.8,17.56 l 10.9,-49.76 c -28.9,-6.29 -58.2,-12.29 -87.1,-17.83 z m -175.4,-28.94 -7,50.45 c 28.7,3.98 57.8,8.42 86.6,13.16 l 8.3,-50.24 c -29.2,-4.83 -58.7,-9.32 -87.9,-13.37 z m -176.52,-20.03 -4.47,50.73 c 28.84,2.54 58.17,5.49 87.14,8.77 l 5.74,-50.6 c -29.41,-3.33 -59.16,-6.33 -88.41,-8.9 z m -177.27,-11.1 -1.9,50.89 c 28.99,1.08 58.38,2.55 87.36,4.37 l 3.17,-50.83 c -29.39,-1.85 -59.21,-3.34 -88.63,-4.43"
         style="fill:#cfd1d2;fill-opacity:1;fill-rule:nonzero;stroke:none"
         id="path38" />
      <path
         d="m 9554.68,2082.19 v 50.93 c 14.47,0 28.92,0.09 43.35,0.27 l 0.6,-50.94 c -14.64,-0.16 -29.28,-0.26 -43.95,-0.26"
         style="fill:#cfd1d2;fill-opacity:1;fill-rule:nonzero;stroke:none"
         id="path40" />
      <path
         d="m 9427.81,9326.91 -1.94,50.89 c 29.01,1.12 58.51,1.91 87.69,2.37 l 0.8,-50.93 c -28.8,-0.45 -57.91,-1.23 -86.55,-2.33 z m -173.07,-10.61 -4.3,50.75 c 29.09,2.46 58.58,4.61 87.65,6.39 l 3.11,-50.83 c -28.68,-1.77 -57.77,-3.88 -86.46,-6.31 z m -172.4,-18.59 -6.64,50.5 c 28.85,3.78 58.21,7.3 87.26,10.43 l 5.46,-50.63 c -28.66,-3.11 -57.63,-6.56 -86.08,-10.3 z m -171.34,-26.57 -8.98,50.14 c 28.83,5.16 57.99,10.02 86.68,14.47 l 7.8,-50.34 c -28.3,-4.37 -57.07,-9.18 -85.5,-14.27 z m -169.93,-34.52 -11.29,49.67 c 28.33,6.44 57.22,12.67 85.9,18.5 l 10.15,-49.92 c -28.3,-5.75 -56.82,-11.89 -84.76,-18.25 z m -168.1,-42.41 -13.62,49.08 c 28.01,7.76 56.6,15.33 84.96,22.49 l 12.46,-49.38 c -27.98,-7.05 -56.17,-14.53 -83.8,-22.19 z m -165.97,-50.23 -15.88,48.39 c 27.61,9.08 55.81,17.97 83.81,26.45 l 14.77,-48.75 c -27.63,-8.36 -55.45,-17.14 -82.7,-26.09 z m -163.42,-57.93 -18.13,47.59 c 27.36,10.44 55.13,20.64 82.5,30.34 l 17.01,-48 c -27,-9.57 -54.37,-19.64 -81.38,-29.93 z m -160.25,-65.39 -20.34,46.7 c 26.76,11.65 53.9,23.1 80.7,34.03 l 19.23,-47.17 c -26.43,-10.77 -53.2,-22.06 -79.59,-33.56 z m -156.83,-72.68 -22.48,45.7 c 26.15,12.86 52.75,25.58 79.07,37.77 l 21.41,-46.22 c -25.96,-12.03 -52.21,-24.57 -78,-37.25 z m -153.35,-79.93 -24.59,44.61 c 25.46,14.02 51.46,27.96 77.27,41.41 l 23.55,-45.16 c -25.47,-13.28 -51.12,-27.03 -76.23,-40.86 z m -149.56,-86.99 -26.62,43.41 c 24.79,15.21 50.11,30.33 75.3,44.98 l 25.6,-44.02 c -24.83,-14.45 -49.82,-29.39 -74.28,-44.37 z m -145.42,-93.88 -28.61,42.14 c 24.15,16.39 48.76,32.68 73.17,48.42 l 27.61,-42.78 c -24.06,-15.54 -48.35,-31.61 -72.17,-47.78 z m -140.99,-100.54 -30.52,40.77 c 23.27,17.42 47.12,34.86 70.87,51.78 l 29.57,-41.47 c -23.44,-16.69 -46.96,-33.89 -69.92,-51.08 z m -136.25,-106.98 -32.38,39.32 c 22.57,18.58 45.6,37.08 68.44,55.02 l 31.45,-40.07 c -22.54,-17.69 -45.26,-35.94 -67.51,-54.27 z m -131.21,-113.19 -34.15,37.79 c 21.61,19.54 43.77,39.09 65.84,58.13 l 33.26,-38.56 c -21.78,-18.78 -43.63,-38.08 -64.95,-57.36 z m -125.9,-119.17 -35.85,36.19 c 20.76,20.57 41.99,41.14 63.1,61.12 l 35.02,-36.99 c -20.84,-19.72 -41.78,-40.01 -62.27,-60.32 z m -120.3,-124.87 -37.49,34.49 c 19.84,21.58 40.11,43.1 60.24,63.99 l 36.68,-35.34 c -19.86,-20.62 -39.86,-41.85 -59.43,-63.14 z m -114.46,-130.33 -39.04,32.71 c 18.64,22.24 37.9,44.69 57.25,66.71 l 38.27,-33.59 c -19.08,-21.74 -38.09,-43.9 -56.48,-65.83 z m -108.35,-135.52 -40.5,30.88 c 17.65,23.15 35.85,46.47 54.12,69.32 l 39.78,-31.81 c -18.03,-22.54 -35.98,-45.56 -53.4,-68.39 z m -101.98,-140.44 -41.89,28.96 c 16.52,23.91 33.64,48.06 50.86,71.77 l 41.21,-29.93 c -16.99,-23.4 -33.87,-47.21 -50.18,-70.8 z m -95.41,-145.05 -43.18,26.99 c 15.38,24.63 31.35,49.56 47.49,74.08 l 42.57,-27.98 c -15.92,-24.2 -31.69,-48.8 -46.88,-73.09 z m -88.59,-149.38 -44.4,24.96 c 14.24,25.33 29.05,50.98 44.02,76.22 l 43.8,-25.96 c -14.76,-24.92 -29.37,-50.22 -43.42,-75.22 z m -81.58,-153.4 -45.51,22.85 c 13.04,25.98 26.65,52.3 40.43,78.23 l 44.98,-23.9 c -13.61,-25.59 -27.02,-51.55 -39.9,-77.18 z m -74.34,-157.11 -46.53,20.7 c 11.86,26.65 24.22,53.59 36.74,80.08 l 46.05,-21.78 c -12.36,-26.13 -24.56,-52.71 -36.26,-79 z m -66.95,-160.48 -47.46,18.51 c 10.61,27.19 21.7,54.69 32.98,81.74 l 47.01,-19.6 c -11.13,-26.68 -22.08,-53.82 -32.53,-80.65 z m -59.38,-163.51 -48.27,16.25 c 9.39,27.88 19.2,55.9 29.14,83.25 l 47.86,-17.39 c -9.8,-26.99 -19.47,-54.61 -28.73,-82.11 z m -51.57,-165.88 -48.99,13.97 c 7.99,28.02 16.45,56.36 25.11,84.23 l 48.63,-15.12 c -8.54,-27.49 -16.87,-55.44 -24.75,-83.08 z m -43.67,-167.8 -49.58,11.67 c 6.69,28.42 13.8,57.12 21.14,85.31 l 49.29,-12.83 c -7.24,-27.8 -14.25,-56.11 -20.85,-84.15 z m -35.79,-169.66 -50.07,9.34 c 5.37,28.76 11.13,57.76 17.13,86.19 l 49.83,-10.49 c -5.91,-28.06 -11.59,-56.67 -16.89,-85.04 z m -27.84,-171.15 -50.45,7.02 c 3.98,28.61 8.38,57.85 13.09,86.88 l 50.28,-8.15 c -4.65,-28.67 -9,-57.5 -12.92,-85.75 z m -19.86,-172.25 -50.72,4.67 c 2.66,28.99 5.71,58.4 9.05,87.4 l 50.6,-5.83 c -3.3,-28.61 -6.3,-57.63 -8.93,-86.24 z m -11.89,-172.98 -50.87,2.31 c 1.31,29.1 3,58.62 5.01,87.74 l 50.82,-3.5 c -1.99,-28.73 -3.66,-57.85 -4.96,-86.55 z m -3.95,-173.37 h -50.94 c 0,29.03 0.34,58.59 1,87.85 l 50.92,-1.14 c -0.66,-28.89 -0.98,-58.07 -0.98,-86.71"
         style="fill:#cfd1d2;fill-opacity:1;fill-rule:nonzero;stroke:none"
         id="path42" />
      <path
         d="m 16579.2,2184.66 c -424.8,0 -770.3,-345.57 -770.3,-770.31 0,-424.748 345.5,-770.35 770.3,-770.35 424.7,0 770.3,345.602 770.3,770.35 0,424.74 -345.6,770.31 -770.3,770.31 z m 0,-1624.961 c -471.3,0 -854.7,383.403 -854.7,854.651 0,471.26 383.4,854.66 854.7,854.66 471.2,0 854.6,-383.4 854.6,-854.66 0,-471.248 -383.4,-854.651 -854.6,-854.651"
         style="fill:#a5a6a9;fill-opacity:1;fill-rule:nonzero;stroke:none"
         id="path44" />
      <path
         d="m 17391.7,2049.37 c -215.6,0 -391.1,-175.41 -391.1,-391.01 0,-215.62 175.5,-391.03 391.1,-391.03 215.6,0 391,175.41 391,391.03 0,215.6 -175.4,391.01 -391,391.01 z m 0,-853.17 c -254.9,0 -462.2,207.31 -462.2,462.16 0,254.85 207.3,462.19 462.2,462.19 254.8,0 462.2,-207.34 462.2,-462.19 0,-254.85 -207.4,-462.16 -462.2,-462.16"
         style="fill:#e5e5e6;fill-opacity:1;fill-rule:nonzero;stroke:none"
         id="path46" />
      <path
         d="m 14008.7,1833.54 c 133.9,0 245.8,-93.38 274.6,-218.44 21.8,6.47 45,10.01 68.9,10.01 133.4,0 241.6,-108.19 241.6,-241.67 0,-133.38 -108.2,-241.64 -241.6,-241.64 h -0.5 -640.6 v 0 c -104,0.9 -188,85.43 -188,189.59 0,104.66 84.8,189.5 189.5,189.5 5.4,0 10.7,-0.32 16,-0.77 -1.1,10.35 -1.8,20.84 -1.8,31.46 0,155.75 126.2,281.96 281.9,281.96"
         style="fill:#333c8b;fill-opacity:1;fill-rule:nonzero;stroke:none"
         id="path48" />
      <path
         d="m 14352.2,1705.25 c -5.1,0 -10.3,-0.18 -15.3,-0.42 -58.3,125.92 -184.4,208.83 -328.2,208.83 -185.6,0 -338.9,-140.22 -359.6,-320.25 -11.9,-2.82 -23.3,-7.11 -34.6,-11.54 -12.1,47.04 -19.2,96.11 -19.2,146.96 0,324.11 262.7,586.85 586.9,586.85 58.1,0 114.2,-8.59 167.2,-24.3 70,303.96 342,530.69 667.2,530.69 378.1,0 684.7,-306.58 684.7,-684.71 0,-25.9 -1.6,-51.46 -4.4,-76.63 12.9,1.09 25.8,1.82 39,1.82 254.2,0 460.3,-206.1 460.3,-460.36 0,-253.03 -204.2,-458.29 -456.8,-460.29 v -0.1 h -1175.5 c 67.2,59 110,145.38 110,241.64 0,177.43 -144.3,321.81 -321.7,321.81"
         style="fill:#cfd1d2;fill-opacity:1;fill-rule:nonzero;stroke:none"
         id="path50" />
      <path
         d="m 15482.2,3039.01 -7.9,1.15 c -15.2,0 -27.6,-12.36 -27.6,-27.53 V 2912 c 0,-11.3 7.2,-21.46 17.9,-25.32 159.6,-57.24 287.9,-180.29 352.1,-337.64 4.2,-10.16 13.9,-16.67 24.8,-16.67 h 102.6 c 8.8,0 17.2,4.32 22.3,11.54 5.2,7.24 6.5,16.44 3.6,24.79 -77.8,224.78 -260.2,400.61 -487.8,470.31"
         style="fill:#cfd1d2;fill-opacity:1;fill-rule:nonzero;stroke:none"
         id="path52" />
      <path
         d="m 15514.4,3328.37 -6.1,0.56 c -15,0 -27.4,-12.28 -27.4,-27.44 v -99.07 c 0,-12.33 8.4,-23.07 20.5,-26.14 292.8,-72.93 525.5,-298.97 607.2,-590.01 3.3,-11.65 13.9,-19.79 25.9,-19.79 h 99.3 c 8.6,0 16.5,3.91 21.7,10.67 5.2,6.7 7.1,15.32 5,23.47 -90.5,361.25 -383.3,646.9 -746.1,727.75"
         style="fill:#a5a6a9;fill-opacity:1;fill-rule:nonzero;stroke:none"
         id="path54" />
      <path
         d="m 17475.9,10369.4 c -136.8,0 -248.1,-111.4 -248.1,-248.2 0,-136.83 111.3,-248.14 248.1,-248.14 136.9,0 248.2,111.31 248.2,248.14 0,136.8 -111.3,248.2 -248.2,248.2 z m 0,-569.11 c -176.9,0 -320.9,143.96 -320.9,320.91 0,177 144,320.9 320.9,320.9 177,0 321,-143.9 321,-320.9 0,-176.95 -144,-320.91 -321,-320.91"
         style="fill:#a5a6a9;fill-opacity:1;fill-rule:nonzero;stroke:none"
         id="path56" />
      <path
         d="m 1392.91,2566.48 c 0,-130.96 -106.17,-237.13 -237.14,-237.13 -130.97,0 -237.137,106.17 -237.137,237.13 0,130.97 106.167,237.14 237.137,237.14 130.97,0 237.14,-106.17 237.14,-237.14"
         style="fill:#dfaaae;fill-opacity:1;fill-rule:nonzero;stroke:none"
         id="path58" />
      <path
         d="m 16512.4,9351.82 c 0,-424.93 -344.5,-769.39 -769.4,-769.39 -425,0 -769.4,344.46 -769.4,769.39 0,424.92 344.4,769.38 769.4,769.38 424.9,0 769.4,-344.46 769.4,-769.38"
         style="fill:#e5e5e6;fill-opacity:1;fill-rule:nonzero;stroke:none"
         id="path60" />
      <path
         d="m 17923.5,4996.91 c 0,-130.96 -106.1,-237.13 -237.1,-237.13 -131,0 -237.1,106.17 -237.1,237.13 0,130.97 106.1,237.14 237.1,237.14 131,0 237.1,-106.17 237.1,-237.14"
         style="fill:#dfaaae;fill-opacity:1;fill-rule:nonzero;stroke:none"
         id="path62" />
      <path
         d="m 13847.1,3040.16 c 0,-130.97 -106.2,-237.14 -237.1,-237.14 -131,0 -237.2,106.17 -237.2,237.14 0,130.96 106.2,237.13 237.2,237.13 130.9,0 237.1,-106.17 237.1,-237.13"
         style="fill:#dfaaae;fill-opacity:1;fill-rule:nonzero;stroke:none"
         id="path64" />
      <path
         d="m 16220.2,7139.07 c 0,-83.04 -67.3,-150.36 -150.4,-150.36 -83,0 -150.3,67.32 -150.3,150.36 0,83.06 67.3,150.37 150.3,150.37 83.1,0 150.4,-67.31 150.4,-150.37"
         style="fill:#dfaaae;fill-opacity:1;fill-rule:nonzero;stroke:none"
         id="path66" />
      <path
         d="m 5337.01,4594.97 c 0,-83.05 -67.32,-150.37 -150.37,-150.37 -83.05,0 -150.37,67.32 -150.37,150.37 0,83.05 67.32,150.37 150.37,150.37 83.05,0 150.37,-67.32 150.37,-150.37"
         style="fill:#dfaaae;fill-opacity:1;fill-rule:nonzero;stroke:none"
         id="path68" />
      <path
         d="m 2439.34,6491.51 c 0,-194.18 -157.42,-351.59 -351.6,-351.59 -194.18,0 -351.59,157.41 -351.59,351.59 0,194.18 157.41,351.6 351.59,351.6 194.18,0 351.6,-157.42 351.6,-351.6"
         style="fill:#dfaaae;fill-opacity:1;fill-rule:nonzero;stroke:none"
         id="path70" />
      <path
         d="m 4177.5,7364.91 c 0,-83.04 -67.32,-150.37 -150.37,-150.37 -83.05,0 -150.37,67.33 -150.37,150.37 0,83.05 67.32,150.37 150.37,150.37 83.05,0 150.37,-67.32 150.37,-150.37"
         style="fill:#dfaaae;fill-opacity:1;fill-rule:nonzero;stroke:none"
         id="path72" />
      <path
         d="m 4816.88,8267.53 h -370.95 v 38.64 h 370.95 v -38.64"
         style="fill:#cfd1d2;fill-opacity:1;fill-rule:nonzero;stroke:none"
         id="path74" />
      <path
         d="m 1551.33,8063.5 -26.57,28.05 331.23,313.73 26.57,-28.05 -331.23,-313.73"
         style="fill:#cfd1d2;fill-opacity:1;fill-rule:nonzero;stroke:none"
         id="path76" />
      <path
         d="m 2490.23,8063.99 -347.06,353.78 27.59,27.07 347.06,-353.78 -27.59,-27.07"
         style="fill:#cfd1d2;fill-opacity:1;fill-rule:nonzero;stroke:none"
         id="path78" />
      <path
         d="m 3902.48,9972.48 -94,500.72 37.98,7.1 94,-500.68 -37.98,-7.14"
         style="fill:#cfd1d2;fill-opacity:1;fill-rule:nonzero;stroke:none"
         id="path80" />
      <path
         d="m 4180.2,9912.34 -20.11,33 431.99,263.26 20.12,-33 -432,-263.26"
         style="fill:#cfd1d2;fill-opacity:1;fill-rule:nonzero;stroke:none"
         id="path82" />
      <path
         d="m 1915.69,8689.11 -519.68,390.95 23.23,30.89 519.69,-390.95 -23.24,-30.89"
         style="fill:#cfd1d2;fill-opacity:1;fill-rule:nonzero;stroke:none"
         id="path84" />
      <path
         d="m 4260.37,9976.05 -288.6,-152.52 -288.6,152.52 288.6,152.55 288.6,-152.55"
         style="fill:#6d6e70;fill-opacity:1;fill-rule:nonzero;stroke:none"
         id="path86" />
      <path
         d="m 3683.17,9976.05 v -312.13 l 288.6,-152.52 v 312.13 l -288.6,152.52"
         style="fill:#d0d6db;fill-opacity:1;fill-rule:nonzero;stroke:none"
         id="path88" />
      <path
         d="M 4259.46,9976.05 V 9663.92 L 3970.87,9511.4 v 312.13 l 288.59,152.52"
         style="fill:#a2a6ac;fill-opacity:1;fill-rule:nonzero;stroke:none"
         id="path90" />
      <path
         d="m 4470.48,8470.47 -288.6,-152.53 -288.6,152.53 288.6,152.53 288.6,-152.53"
         style="fill:#6d6e70;fill-opacity:1;fill-rule:nonzero;stroke:none"
         id="path92" />
      <path
         d="m 3893.28,8470.47 v -312.13 l 288.6,-152.53 v 312.13 l -288.6,152.53"
         style="fill:#d0d6db;fill-opacity:1;fill-rule:nonzero;stroke:none"
         id="path94" />
      <path
         d="m 4469.58,8470.47 v -312.13 l -288.59,-152.53 v 312.13 l 288.59,152.53"
         style="fill:#a2a6ac;fill-opacity:1;fill-rule:nonzero;stroke:none"
         id="path96" />
      <path
         d="m 2302.17,8704.56 -288.61,-152.53 -288.59,152.53 288.59,152.52 288.61,-152.52"
         style="fill:#6d6e70;fill-opacity:1;fill-rule:nonzero;stroke:none"
         id="path98" />
      <path
         d="m 1724.97,8704.56 v -312.14 l 288.59,-152.52 v 312.13 l -288.59,152.53"
         style="fill:#d0d6db;fill-opacity:1;fill-rule:nonzero;stroke:none"
         id="path100" />
      <path
         d="m 2301.27,8704.56 v -312.14 l -288.6,-152.52 v 312.13 l 288.6,152.53"
         style="fill:#a2a6ac;fill-opacity:1;fill-rule:nonzero;stroke:none"
         id="path102" />
      <path
         d="m 2701.84,7895.76 h -260.83 v 260.83 h 260.83 v -260.83"
         style="fill:#4a4a4b;fill-opacity:1;fill-rule:nonzero;stroke:none"
         id="path104" />
      <path
         d="m 3957.89,10399.5 h -260.84 v 260.8 h 260.84 v -260.8"
         style="fill:#4a4a4b;fill-opacity:1;fill-rule:nonzero;stroke:none"
         id="path106" />
      <path
         d="m 4708.91,10079.7 h -260.84 v 260.8 h 260.84 v -260.8"
         style="fill:#4a4a4b;fill-opacity:1;fill-rule:nonzero;stroke:none"
         id="path108" />
      <path
         d="m 5077.71,8156.44 h -260.83 v 260.83 h 260.83 v -260.83"
         style="fill:#4a4a4b;fill-opacity:1;fill-rule:nonzero;stroke:none"
         id="path110" />
      <path
         d="m 1594.55,7895.76 h -260.83 v 260.83 h 260.83 v -260.83"
         style="fill:#4a4a4b;fill-opacity:1;fill-rule:nonzero;stroke:none"
         id="path112" />
      <path
         d="m 1538.04,9010.34 h -260.83 v 260.84 h 260.83 v -260.84"
         style="fill:#4a4a4b;fill-opacity:1;fill-rule:nonzero;stroke:none"
         id="path114" />
      <path
         d="m 2771.9,8959.47 -19.5,33.37 66.73,39 19.5,-33.37 z m -100.09,-58.48 -19.51,33.36 66.73,39 19.51,-33.37 z m -100.1,-58.5 -19.49,33.37 66.73,38.99 19.49,-33.37 z m -100.1,-58.49 -19.49,33.37 66.73,39 19.49,-33.37 z m -100.09,-58.49 -19.5,33.37 66.73,38.99 19.5,-33.36 z m -100.09,-58.49 -19.5,33.37 66.73,38.99 19.49,-33.36 -66.72,-39"
         style="fill:#4a4a4b;fill-opacity:1;fill-rule:nonzero;stroke:none"
         id="path116" />
      <path
         d="m 3463.8,8818.42 -69.42,33.96 16.98,34.72 69.42,-33.98 z m 104.13,-50.95 -69.41,33.97 16.98,34.7 69.42,-33.96 z m 104.14,-50.96 -69.42,33.98 16.98,34.71 69.42,-33.97 z m 104.13,-50.94 -69.42,33.96 16.99,34.72 69.41,-33.97 z m 104.14,-50.95 -69.42,33.96 16.98,34.72 69.42,-33.97 z m 104.13,-50.95 -69.42,33.96 16.98,34.71 69.43,-33.96 z m 46.52,-22.76 -11.8,5.77 16.97,34.72 11.8,-5.78 -16.97,-34.71"
         style="fill:#4a4a4b;fill-opacity:1;fill-rule:nonzero;stroke:none"
         id="path118" />
      <path
         d="m 3764.27,9513.82 -23.77,30.46 60.92,47.56 23.78,-30.47 z m -91.39,-71.34 -23.78,30.47 60.93,47.55 23.78,-30.46 z m -91.39,-71.33 -23.78,30.46 60.93,47.56 23.78,-30.46 z m -91.38,-71.33 -23.78,30.46 60.93,47.55 23.78,-30.46 -60.93,-47.55"
         style="fill:#4a4a4b;fill-opacity:1;fill-rule:nonzero;stroke:none"
         id="path120" />
      <path
         d="m 3600.3,9362.22 -486.76,-257.27 -486.78,257.27 486.78,257.25 486.76,-257.25"
         style="fill:#333c8b;fill-opacity:1;fill-rule:nonzero;stroke:none"
         id="path122" />
      <path
         d="m 2626.76,9362.22 v -526.47 l 486.78,-257.26 v 526.46 l -486.78,257.27"
         style="fill:#d0d6db;fill-opacity:1;fill-rule:nonzero;stroke:none"
         id="path124" />
      <path
         d="m 3598.79,9362.22 v -526.47 l -486.78,-257.26 v 526.46 l 486.78,257.27"
         style="fill:#a2a6ac;fill-opacity:1;fill-rule:nonzero;stroke:none"
         id="path126" />
      <path
         d="m 16069.8,4189.39 h -1831.6 l -160,325.79 h -1338.9 v 72.27 h 1383.9 l 160.1,-325.77 h 1786.5 v -72.29"
         style="fill:#333c8b;fill-opacity:1;fill-rule:nonzero;stroke:none"
         id="path128" />
      <path
         d="m 17268,3812.38 h -3204 l -228.4,440.05 64.5,33.53 208.1,-400.81 H 17268 v -72.77"
         style="fill:#a5a6a9;fill-opacity:1;fill-rule:nonzero;stroke:none"
         id="path130" />
      <path
         d="m 18088,4151.12 h -1663.1 l -291.1,407.47 h -1465.6 v 72.76 h 1503.1 l 291,-407.46 H 18088 v -72.77"
         style="fill:#a5a6a9;fill-opacity:1;fill-rule:nonzero;stroke:none"
         id="path132" />
      <path
         d="M 8430.29,9738.19 H 7241.45 l -255.74,497.01 h -961.4 v 72.3 H 7029.8 l 255.75,-497.02 h 1144.74 v -72.29"
         style="fill:#a5a6a9;fill-opacity:1;fill-rule:nonzero;stroke:none"
         id="path134" />
      <path
         d="M 9295.82,9297.05 H 6975.28 l -244.99,549.47 H 5350.9 v 67.68 h 1423.31 l 244.99,-549.48 h 2276.62 v -67.67"
         style="fill:#333c8b;fill-opacity:1;fill-rule:nonzero;stroke:none"
         id="path136" />
      <path
         d="M 9888.23,9738.19 H 8769.54 l -299.9,497.01 H 7417.75 v 72.3 h 1092.69 l 299.9,-497.02 h 1077.89 v -72.29"
         style="fill:#a5a6a9;fill-opacity:1;fill-rule:nonzero;stroke:none"
         id="path138" />
      <path
         d="m 9438.22,9486.93 c -76.34,0 -138.44,-62.11 -138.44,-138.44 0,-76.35 62.1,-138.45 138.44,-138.45 76.34,0 138.45,62.1 138.45,138.45 0,76.33 -62.11,138.44 -138.45,138.44 z m 0,-344.57 c -113.65,0 -206.12,92.47 -206.12,206.13 0,113.65 92.47,206.11 206.12,206.11 113.66,0 206.12,-92.46 206.12,-206.11 0,-113.66 -92.46,-206.13 -206.12,-206.13"
         style="fill:#333c8b;fill-opacity:1;fill-rule:nonzero;stroke:none"
         id="path140" />
      <path
         d="m 5178.61,10018.8 c -76.33,0 -138.43,-62.1 -138.43,-138.44 0,-76.35 62.1,-138.45 138.43,-138.45 76.35,0 138.45,62.1 138.45,138.45 0,76.34 -62.1,138.44 -138.45,138.44 z m 0,-344.56 c -113.65,0 -206.11,92.47 -206.11,206.12 0,113.65 92.46,206.14 206.11,206.14 113.66,0 206.13,-92.49 206.13,-206.14 0,-113.65 -92.47,-206.12 -206.13,-206.12"
         style="fill:#333c8b;fill-opacity:1;fill-rule:nonzero;stroke:none"
         id="path142" />
      <path
         d="m 12260.5,618.301 c 35.6,-34.801 109.4,-17 166.5,39.398 1,1 2.1,2 3.2,3 57.4,58.903 74.7,135.199 38.5,170.602 l -70.3,68.601 -29.7,29 -450.3,440.048 -205,-216.05 449.6,-439.4 29.7,-29 67.8,-66.199"
         style="fill:#808083;fill-opacity:1;fill-rule:nonzero;stroke:none"
         id="path144" />
      <path
         d="m 11676.5,1397.36 c -85.2,-86.88 -191.4,-140.36 -302.6,-161.04 v -0.01 c -11.3,-2.11 -22.7,-3.85 -34.2,-5.27 -8.5,-1.06 -17.1,-1.8 -25.6,-2.48 -6.7,-0.52 -13.4,-0.86 -20.1,-1.16 -12.5,-0.54 -25,-0.69 -37.5,-0.42 -7.7,0.17 -15.5,0.4 -23.2,0.88 -7.7,0.48 -15.4,1.04 -23.1,1.84 -12.6,1.29 -25.2,2.92 -37.7,5.05 -6.5,1.1 -12.9,2.51 -19.3,3.84 -9.8,2.01 -19.4,4.27 -29.1,6.79 -5.4,1.42 -10.8,2.67 -16.2,4.24 -13.6,3.99 -27.1,8.68 -40.5,13.71 -5,1.89 -9.9,3.85 -14.9,5.88 -13.9,5.68 -27.6,11.78 -41.2,18.6 -2.8,1.46 -5.6,3.11 -8.4,4.61 -12.4,6.52 -24.5,13.56 -36.5,21.05 -3.1,1.97 -6.3,3.84 -9.4,5.89 -13.5,8.84 -26.7,18.37 -39.6,28.49 -2.9,2.26 -5.7,4.61 -8.5,6.94 -13.4,10.89 -26.5,22.24 -39,34.53 -28.1,27.55 -52.8,57.31 -74,88.74 -148.4,219.9 -127,520.99 65.9,717.85 12.5,12.75 25.6,24.57 38.9,35.88 4.7,3.97 9.6,7.63 14.3,11.43 8.7,6.89 17.5,13.55 26.5,19.85 6.2,4.37 12.5,8.61 18.8,12.71 7.5,4.82 15.1,9.35 22.8,13.78 7.6,4.4 15.1,8.85 22.8,12.86 4.2,2.17 8.5,4.01 12.7,6.07 22.3,10.89 45,20.36 68.3,28.18 l 1.7,0.62 c 12.8,4.25 25.7,7.88 38.7,11.2 1.7,0.46 3.5,0.91 5.3,1.35 185.4,45.6 389.4,-2.35 535.8,-145.89 225,-220.48 228.6,-581.63 8.1,-806.59 z m 153.2,976.27 c -286.4,280.73 -728.4,304.88 -1041.8,75.69 -0.9,-0.67 -1.8,-1.3 -2.7,-1.97 -15.8,-11.62 -31.2,-23.95 -46.2,-36.85 -2.8,-2.41 -5.6,-4.89 -8.4,-7.35 -14.8,-13.08 -29.4,-26.58 -43.5,-40.93 -195.3,-199.15 -266.5,-473.69 -214.6,-727.86 25.9,-127.08 82.6,-249.07 169.9,-354.01 17.5,-20.98 36.2,-41.28 56.1,-60.85 11.3,-11 22.9,-21.6 34.6,-31.8 3.7,-3.2 7.5,-6.3 11.2,-9.4 8.3,-7 16.7,-13.9 25.2,-20.5 4.3,-3.3 8.5,-6.5 12.8,-9.7 8.6,-6.4 17.2,-12.5 26,-18.5 4,-2.8 8,-5.6 12,-8.2 11.1,-7.4 22.4,-14.4 33.8,-21.1 1.6,-1 3.1,-2 4.7,-2.9 13.4,-7.8 26.9,-15.1 40.6,-22 2.8,-1.4 5.6,-2.7 8.4,-4 10.9,-5.4 21.9,-10.5 33,-15.3 3.8,-1.7 7.7,-3.3 11.5,-4.9 10.6,-4.5 21.3,-8.7 32,-12.6 3.5,-1.3 7,-2.6 10.5,-3.9 13,-4.5 26.1,-8.8 39.3,-12.7 1.1,-0.3 2.1,-0.7 3.1,-1 29.9,-8.7 60.3,-15.6 90.8,-20.8 2,-0.298 4.1,-0.598 6.1,-0.899 13.3,-2.199 26.7,-4 40.2,-5.5 2,-0.301 4.1,-0.5 6.1,-0.699 62.1,-6.403 124.7,-5.7 186.6,2.199 1,0.199 2,0.301 3,0.398 172.8,22.801 339.6,101.101 471.1,235.281 312.4,318.67 307.3,830.25 -11.4,1142.65"
         style="fill:#808083;fill-opacity:1;fill-rule:nonzero;stroke:none"
         id="path146" />
      <path
         d="m 2346.05,2667.68 c -8.56,0 -17.06,2.96 -23.9,8.73 l -465.1,392.69 c -11.65,9.85 -16.08,25.81 -11.16,40.24 4.91,14.43 18.16,24.38 33.4,25.07 l 355.09,15.95 3.38,-73.29 885.04,40.75 -758.01,-445.04 c -5.82,-3.42 -12.3,-5.1 -18.74,-5.1 m 615.21,441.19 -984.11,-44.21 372.75,-314.73 611.36,358.94"
         style="fill:#99999c;fill-opacity:1;fill-rule:nonzero;stroke:none"
         id="path148" />
      <path
         d="m 1844.83,3844.94 c -14.56,0 -27.84,8.53 -33.81,21.92 -6.22,13.93 -3.28,30.24 7.42,41.1 l 427.05,433.75 c 7.12,7.23 16.69,11.05 26.41,11.05 5.32,0 10.69,-1.15 15.72,-3.51 l 795.08,-373.21 -884.47,-40.73 3.39,-73.59 -355.05,-16.74 -1.74,-0.04 m 435.04,426.13 -342.25,-347.64 984,46.4 -641.75,301.24"
         style="fill:#99999c;fill-opacity:1;fill-rule:nonzero;stroke:none"
         id="path150" />
      <path
         d="m 3122.8,3117.82 4.8,2.81 c 14.69,8.62 21.6,26.14 16.76,42.46 -4.65,15.68 -18.88,26.53 -35.18,26.53 -0.66,0 -1.32,-0.01 -1.99,-0.05 l -872.81,-39.21 -32.76,711.36 872.73,41.14 c 17,0.81 31.27,13.1 34.59,29.8 3.31,16.68 -5.19,33.49 -20.6,40.73 l -5.64,2.65 625.07,28.77 c 7.07,0.32 14.31,0.48 21.68,0.48 115.2,0 265.4,-38.67 390.23,-101.35 161.92,-81.29 253.9,-187.22 259.02,-298.27 5.11,-111.05 -76.75,-224.98 -230.52,-320.81 -126.12,-78.6 -283.48,-132.88 -400.89,-138.29 l -624.49,-28.75 m 606.96,813.42 c -6.35,0 -12.53,-0.14 -18.58,-0.42 l -1435.53,-66.09 32.69,-710.25 1435.55,66.09 c 104.03,4.79 250.76,55.89 365.11,127.16 128.14,79.86 199.48,172.63 195.7,254.53 -3.76,81.91 -83.32,167.74 -218.26,235.5 -113.42,56.94 -253.8,93.48 -356.68,93.48"
         style="fill:#99999c;fill-opacity:1;fill-rule:nonzero;stroke:none"
         id="path152" />
      <path
         d="m 2237.76,3077.07 -3.38,73.29 872.81,39.21 c 0.67,0.04 1.33,0.05 1.99,0.05 16.3,0 30.53,-10.85 35.18,-26.53 4.84,-16.32 -2.07,-33.84 -16.76,-42.46 l -4.8,-2.81 -885.04,-40.75"
         style="fill:#858588;fill-opacity:1;fill-rule:nonzero;stroke:none"
         id="path154" />
      <path
         d="m 2201.62,3861.72 -3.39,73.59 884.47,40.73 5.64,-2.65 c 15.41,-7.24 23.91,-24.05 20.6,-40.73 -3.32,-16.7 -17.59,-28.99 -34.59,-29.8 l -872.73,-41.14"
         style="fill:#858588;fill-opacity:1;fill-rule:nonzero;stroke:none"
         id="path156" />
      <path
         d="m 3688.06,3295.21 c -103.75,0 -203.26,58.9 -249.88,158.98 -64.07,137.55 -4.27,301.57 133.26,365.64 37.49,17.45 76.93,25.72 115.79,25.72 103.74,0 203.24,-58.91 249.85,-158.99 64.07,-137.55 4.28,-301.57 -133.26,-365.63 -37.47,-17.45 -76.93,-25.72 -115.76,-25.72 m -0.73,476.27 c -28.4,0 -57.22,-6.04 -84.61,-18.79 -100.52,-46.83 -144.21,-166.7 -97.39,-267.22 34.06,-73.14 106.8,-116.18 182.61,-116.18 28.39,0 57.21,6.04 84.6,18.79 100.53,46.81 144.22,166.69 97.4,267.21 -34.07,73.13 -106.79,116.19 -182.61,116.19"
         style="fill:#99999c;fill-opacity:1;fill-rule:nonzero;stroke:none"
         id="path158" />
      <path
         d="m 848.77,3618.33 1239.99,81.84 2.68,-75.84 -1242.67,-6"
         style="fill:#a7a7a9;fill-opacity:1;fill-rule:nonzero;stroke:none"
         id="path160" />
      <path
         d="m 862.207,3292.29 1239.993,81.84 2.68,-75.85 -1242.673,-5.99"
         style="fill:#a7a7a9;fill-opacity:1;fill-rule:nonzero;stroke:none"
         id="path162" />
      <path
         d="m 2099.05,3459.55 -1002,6.15 999.59,69.71 2.41,-75.86"
         style="fill:#a7a7a9;fill-opacity:1;fill-rule:nonzero;stroke:none"
         id="path164" />
      <path
         d="m 2136.26,3619.33 9.37,-257.44 56.51,2.06 -9.38,257.44 z m -33.56,-348.16 c -23.88,0 -43.64,18.9 -44.52,42.95 l -12.61,346.5 c -0.43,11.81 3.84,23.31 11.89,31.96 8.05,8.66 19.21,13.77 31.02,14.19 l 145.58,5.3 c 24.38,0.91 45.26,-18.32 46.15,-42.91 l 12.62,-346.5 c 0.43,-11.81 -3.85,-23.3 -11.89,-31.97 -8.05,-8.66 -19.21,-13.76 -31.02,-14.19 l -145.58,-5.29 -1.64,-0.04"
         style="fill:#808083;fill-opacity:1;fill-rule:nonzero;stroke:none"
         id="path166" />
      <path
         d="m 17703.8,8447.13 c -94.1,23.58 -216.1,27.05 -343.7,9.74 -127.5,-17.29 -244.2,-53.14 -328.6,-100.92 -72.5,-41.09 -112.9,-87.28 -108,-123.57 4.9,-36.28 56.2,-70.05 137,-90.33 94.1,-23.57 216.1,-27.04 343.7,-9.75 127.5,17.31 244.2,53.16 328.6,100.93 72.6,41.09 112.9,87.29 108,123.57 -4.9,36.29 -56.1,70.06 -137,90.33"
         style="fill:#a5a6a9;fill-opacity:1;fill-rule:nonzero;stroke:none"
         id="path168" />
      <path
         d="m 17413.7,8061.75 c -136.3,-18.5 -267.9,-14.49 -370.5,11.25 -40.5,10.15 -75.2,23.49 -103.4,39.54 l 155,-1143.27 c 23,22.99 52.8,45.07 89.2,65.66 92.1,52.15 217.8,91.05 354.2,109.53 136.3,18.49 267.9,14.5 370.5,-11.24 40.5,-10.16 75.2,-23.49 103.4,-39.54 l -155,1143.26 c -23,-22.98 -52.8,-45.07 -89.2,-65.65 -92.1,-52.15 -217.9,-91.06 -354.2,-109.54"
         style="fill:#a5a6a9;fill-opacity:1;fill-rule:nonzero;stroke:none"
         id="path170" />
      <path
         d="m 17891.4,7064.16 c -94.1,23.59 -216.1,27.05 -343.7,9.75 -127.5,-17.3 -244.2,-53.14 -328.6,-100.93 -72.6,-41.09 -112.9,-87.28 -108,-123.57 4.9,-36.28 56.1,-70.04 137,-90.33 94,-23.58 216.1,-27.04 343.6,-9.74 127.6,17.29 244.3,53.14 328.7,100.92 72.5,41.09 112.9,87.28 108,123.57 -5,36.29 -56.2,70.06 -137,90.33"
         style="fill:#a5a6a9;fill-opacity:1;fill-rule:nonzero;stroke:none"
         id="path172" />
      <g
         id="g174">
        <g
           id="g176"
           clip-path="url(#clipPath180)">
          <path
             d="m 17732.8,8233.23 c -84.4,-47.77 -201.1,-83.62 -328.6,-100.93 -127.6,-17.29 -249.6,-13.82 -343.7,9.75 -80.8,20.28 -132.1,54.05 -137,90.33 -4.9,36.29 35.5,82.48 108,123.57 84.4,47.78 201.1,83.63 328.6,100.92 127.6,17.31 249.6,13.84 343.7,-9.74 80.9,-20.27 132.1,-54.04 137,-90.33 4.9,-36.28 -35.4,-82.48 -108,-123.57 z m 279.3,-1139.55 c -28.2,16.05 -62.9,29.38 -103.4,39.54 -102.6,25.74 -234.2,29.73 -370.5,11.24 -136.4,-18.48 -262.1,-57.38 -354.2,-109.53 -36.4,-20.59 -66.2,-42.67 -89.2,-65.66 l -155,1143.27 c 28.2,-16.05 62.9,-29.39 103.4,-39.54 102.6,-25.74 234.2,-29.75 370.5,-11.25 136.3,18.48 262.1,57.39 354.2,109.54 36.4,20.58 66.2,42.67 89.2,65.65 z m -91.7,-243.42 c -84.4,-47.78 -201.1,-83.63 -328.7,-100.92 -127.5,-17.3 -249.6,-13.84 -343.6,9.74 -80.9,20.29 -132.1,54.05 -137,90.33 -4.9,36.29 35.4,82.48 108,123.57 84.4,47.79 201.1,83.63 328.6,100.93 127.6,17.3 249.6,13.84 343.7,-9.75 80.8,-20.27 132,-54.04 137,-90.33 4.9,-36.29 -35.5,-82.48 -108,-123.57 z m -199.3,1665.94 c -102.6,25.74 -234.2,29.73 -370.5,11.24 -136.3,-18.48 -262.1,-57.38 -354.2,-109.53 -101.7,-57.63 -152.7,-126.92 -143.4,-195.1 l 187.5,-1382.97 c 9.3,-68.17 76.8,-121.38 190.3,-149.82 102.6,-25.74 234.2,-29.74 370.5,-11.25 136.3,18.49 262.1,57.39 354.2,109.54 101.7,57.63 152.7,126.91 143.4,195.09 l -187.5,1382.97 c -9.3,68.17 -76.8,121.38 -190.3,149.83"
             style="fill:url(#linearGradient188);fill-opacity:1;fill-rule:nonzero;stroke:none"
             id="path190" />
        </g>
      </g>
      <path
         d="m 17732.8,8233.23 c -84.4,-47.77 -201.1,-83.62 -328.6,-100.93 -127.6,-17.29 -249.6,-13.82 -343.7,9.75 -80.8,20.28 -132.1,54.05 -137,90.33 -4.9,36.29 35.5,82.48 108,123.57 84.4,47.78 201.1,83.63 328.6,100.92 127.6,17.31 249.6,13.84 343.7,-9.74 80.9,-20.27 132.1,-54.04 137,-90.33 4.9,-36.28 -35.4,-82.48 -108,-123.57 z m 279.3,-1139.55 c -28.2,16.05 -62.9,29.38 -103.4,39.54 -102.6,25.74 -234.2,29.73 -370.5,11.24 -136.4,-18.48 -262.1,-57.38 -354.2,-109.53 -36.4,-20.59 -66.2,-42.67 -89.2,-65.66 l -155,1143.27 c 28.2,-16.05 62.9,-29.39 103.4,-39.54 102.6,-25.74 234.2,-29.75 370.5,-11.25 136.3,18.48 262.1,57.39 354.2,109.54 36.4,20.58 66.2,42.67 89.2,65.65 z m -91.7,-243.42 c -84.4,-47.78 -201.1,-83.63 -328.7,-100.92 -127.5,-17.3 -249.6,-13.84 -343.6,9.74 -80.9,20.29 -132.1,54.05 -137,90.33 -4.9,36.29 35.4,82.48 108,123.57 84.4,47.79 201.1,83.63 328.6,100.93 127.6,17.3 249.6,13.84 343.7,-9.75 80.8,-20.27 132,-54.04 137,-90.33 4.9,-36.29 -35.5,-82.48 -108,-123.57 z m -199.3,1665.94 c -102.6,25.74 -234.2,29.73 -370.5,11.24 -136.3,-18.48 -262.1,-57.38 -354.2,-109.53 -101.7,-57.63 -152.7,-126.92 -143.4,-195.1 l 187.5,-1382.97 c 9.3,-68.17 76.8,-121.38 190.3,-149.82 102.6,-25.74 234.2,-29.74 370.5,-11.25 136.3,18.49 262.1,57.39 354.2,109.54 101.7,57.63 152.7,126.91 143.4,195.09 l -187.5,1382.97 c -9.3,68.17 -76.8,121.38 -190.3,149.83"
         style="fill:#cfd1d2;fill-opacity:1;fill-rule:nonzero;stroke:none"
         id="path192" />
      <path
         d="m 18030.3,6959.75 -110.3,812.87 -917.2,-124.41 110.2,-812.87 c 11.1,-81.85 225.4,-120.36 478.7,-86 253.3,34.35 449.7,128.55 438.6,210.41"
         style="fill:#333c8b;fill-opacity:1;fill-rule:nonzero;stroke:none"
         id="path194" />
      <path
         d="m 17920,7772.62 c 11.1,-81.86 -185.2,-176.06 -438.5,-210.41 -253.3,-34.36 -467.6,4.15 -478.7,86 -11.1,81.85 185.2,176.06 438.5,210.41 253.3,34.36 467.6,-4.15 478.7,-86"
         style="fill:#333c8b;fill-opacity:1;fill-rule:nonzero;stroke:none"
         id="path196" />
      <path
         d="m 17620.5,7846.36 c -55.4,0 -114.9,-4.13 -175.9,-12.4 -120,-16.27 -230.4,-46.53 -311,-85.17 -82.6,-39.67 -109,-76.24 -106.2,-97.24 2.9,-21 38.1,-49.22 128.3,-65.43 87.9,-15.79 202.5,-15.53 322.4,0.75 268.9,36.46 424.3,130.81 417.3,182.41 -2.9,20.99 -38.1,49.22 -128.3,65.42 -43.3,7.77 -93,11.66 -146.6,11.66 z m -318.1,-321.63 c -56.7,0 -109.4,4.14 -155.5,12.41 -103.4,18.57 -161.8,55.82 -168.8,107.72 -7,51.9 39.3,103.36 134,148.8 85.1,40.83 200.8,72.66 325.8,89.62 125,16.95 245.1,17.11 338,0.41 103.4,-18.57 161.8,-55.83 168.8,-107.72 15.2,-112.29 -225.6,-206.64 -459.9,-238.42 -63,-8.55 -124.7,-12.82 -182.4,-12.82"
         style="fill:#cfd1d2;fill-opacity:1;fill-rule:nonzero;stroke:none"
         id="path198" />
      <path
         d="m 12893.7,8011.51 1209,-698 1209,698 v 1396 l -1209,697.99 -1209,-697.99 v -1396 m 1209,-752.37 -1256,725.19 v 1450.36 l 1256,725.21 1256.1,-725.21 V 7984.33 l -11.8,-6.81 -1244.3,-718.38"
         style="fill:#4a4a4b;fill-opacity:1;fill-rule:nonzero;stroke:none"
         id="path200" />
      <path
         d="m 14156.4,9995.5 -60.5,104.9 29.1,16.8 60.5,-104.9 -29.1,-16.8 m -125.6,-31.55 -29.1,16.81 60.5,104.84 29.2,-16.8 -60.6,-104.85 m 219.8,-131.55 -60.6,104.84 29.2,16.82 60.5,-104.84 -29.1,-16.82 m -313.9,-31.55 -29.2,16.81 60.6,104.85 29.1,-16.82 -60.5,-104.84 m 408,-131.54 -60.5,104.84 29.1,16.82 60.6,-104.86 -29.2,-16.8 m -502.2,-31.56 -29.1,16.81 60.5,104.85 29.1,-16.81 -60.5,-104.85 m 596.4,-131.55 -60.5,104.85 29.1,16.82 60.5,-104.85 -29.1,-16.82 m -690.6,-31.55 -29.1,16.81 60.5,104.85 29.2,-16.81 -60.6,-104.85 m 784.8,-131.54 -60.6,104.84 29.2,16.82 60.5,-104.85 -29.1,-16.81 m -878.9,-31.56 -29.2,16.81 60.6,104.85 29.1,-16.81 -60.5,-104.85 m 973,-131.55 -60.5,104.85 29.1,16.82 60.5,-104.86 -29.1,-16.81 m -1067.2,-31.55 -29.1,16.81 60.5,104.86 29.1,-16.82 -60.5,-104.85 m 1161.4,-131.54 -60.5,104.85 29.1,16.81 60.5,-104.85 -29.1,-16.81 m -1255.6,-31.56 -29.1,16.82 60.5,104.84 29.2,-16.81 -60.6,-104.85 m 1349.8,-131.54 -60.6,104.84 29.2,16.82 60.5,-104.84 -29.1,-16.82 m -1443.9,-31.56 -29.2,16.81 60.6,104.86 29.1,-16.82 -60.5,-104.85 m 1538,-131.55 -60.5,104.86 29.1,16.81 60.5,-104.85 -29.1,-16.82 m -1632.2,-31.55 -29.1,16.82 60.5,104.85 29.1,-16.82 -60.5,-104.85 m 1726.4,-131.54 -60.5,104.85 29.1,16.81 60.5,-104.84 -29.1,-16.82 m -1820.6,-31.56 -29.1,16.82 60.5,104.85 29.2,-16.82 -60.6,-104.85 m 803.1,-1.94 -13.8,30.64 110.3,49.88 13.9,-30.64 -110.4,-49.88 m 268.1,-16.05 -110.3,49.87 13.8,30.64 110.4,-49.87 -13.9,-30.64 m -439.7,-61.54 -13.8,30.65 110.3,49.87 13.9,-30.63 -110.4,-49.89 m 611.3,-16.05 -110.3,49.87 13.9,30.64 110.3,-49.87 -13.9,-30.64 m 672,-35.96 -60.6,104.85 29.1,16.81 60.6,-104.85 -29.1,-16.81 m -1454.9,-25.58 -13.8,30.65 110.3,49.87 13.8,-30.63 -110.3,-49.89 m -554,-5.98 -29.2,16.82 60.6,104.85 29.1,-16.82 -60.5,-104.85 m 1508.5,-10.07 -110.3,49.89 13.9,30.64 110.3,-49.88 -13.9,-30.65 m -1126.1,-61.53 -13.8,30.64 110.3,49.87 13.8,-30.63 -110.3,-49.88 m 1297.7,-16.06 -110.3,49.89 13.9,30.64 110.3,-49.88 -13.9,-30.65 m 422.9,-43.89 -60.5,104.86 29.1,16.82 60.5,-104.85 -29.1,-16.83 m -1892.2,-17.64 -13.8,30.64 110.3,49.89 13.8,-30.65 -110.3,-49.88 m -305,-13.91 -29.1,16.82 60.5,104.86 29.1,-16.82 -60.5,-104.86 m 1945.9,-2.14 -110.3,49.88 13.9,30.64 110.3,-49.88 -13.9,-30.64 m -1812.5,-61.53 -13.9,30.65 110.4,49.87 13.8,-30.64 -110.3,-49.88 m 1984.1,-16.05 -110.3,49.87 13.9,30.64 110.3,-49.88 -13.9,-30.63 m -2155.7,-61.54 -13.9,30.65 110.4,49.87 13.8,-30.64 -110.3,-49.88 m 2327.3,-16.05 -110.3,49.87 13.9,30.65 90.8,-41.05 -52.6,91.14 29.1,16.82 60.5,-104.84 -19.3,-11.15 1.8,-0.8 -13.9,-30.64 m -2390.9,-12.7 -21.5,23.73 60.5,104.85 29.2,-16.82 -60.6,-104.84 -10.8,6.23 5.5,-12.1 -2.3,-1.05"
         style="fill:#4a4a4b;fill-opacity:1;fill-rule:nonzero;stroke:none"
         id="path202" />
      <path
         d="m 13053.3,9299.32 -110.4,49.87 13.9,30.65 110.3,-49.88 -13.8,-30.64 m -121.1,-19.31 -60.5,104.84 21.5,23.74 2.3,-1.04 -5.5,-12.11 10.8,6.23 60.6,-104.84 -29.2,-16.82 m 2322.8,-31.55 -29.1,16.81 52.6,91.15 -90.8,-41.05 -13.9,30.64 110.3,49.88 13.9,-30.65 -1.8,-0.81 19.3,-11.13 -60.5,-104.84 m -238.9,-10.67 -13.9,30.64 110.3,49.87 13.9,-30.64 -110.3,-49.87 m -1791.2,-16.06 -110.4,49.87 13.9,30.65 110.3,-49.88 -13.8,-30.64 m 1619.6,-61.53 -13.9,30.64 110.3,49.88 13.9,-30.65 -110.3,-49.87 m -1448,-16.06 -110.3,49.87 13.8,30.66 110.3,-49.89 -13.8,-30.64 m -370.1,-27.24 -60.5,104.86 29.1,16.82 60.5,-104.86 -29.1,-16.82 m 2134.4,-31.55 -29.1,16.82 60.5,104.85 29.1,-16.82 -60.5,-104.85 m -487.9,-2.74 -13.9,30.64 110.3,49.89 13.9,-30.65 -110.3,-49.88 m -1104.8,-16.06 -110.3,49.89 13.8,30.64 110.3,-49.88 -13.8,-30.65 m 933.2,-61.53 -13.9,30.64 110.3,49.89 13.9,-30.65 -110.3,-49.88 m -761.6,-16.05 -110.3,49.88 13.8,30.64 110.3,-49.88 -13.8,-30.64 m -619.1,-35.16 -60.6,104.85 29.2,16.82 60.5,-104.85 -29.1,-16.82 m 1209.1,-26.37 -13.9,30.64 110.3,49.88 13.9,-30.64 -110.3,-49.88 m 736.9,-5.18 -29.1,16.81 60.6,104.85 29.1,-16.82 -60.6,-104.84 m -1155.3,-10.88 -110.3,49.88 13.8,30.64 110.4,-49.87 -13.9,-30.65 m 246.7,-61.53 -13.8,30.65 110.3,49.87 13.9,-30.64 -110.4,-49.88 m -75.1,-16.05 -110.3,49.87 13.8,30.65 110.4,-49.88 -13.9,-30.64 m -868.2,-43.09 -60.5,104.85 29.1,16.82 60.6,-104.85 -29.2,-16.82 m 1757.8,-31.56 -29.1,16.82 60.5,104.85 29.1,-16.82 -60.5,-104.85 m -1663.6,-131.54 -60.5,104.85 29.1,16.82 60.5,-104.86 -29.1,-16.81 m 1569.4,-31.55 -29.1,16.81 60.5,104.85 29.1,-16.81 -60.5,-104.85 m -1475.2,-131.55 -60.6,104.85 29.2,16.82 60.5,-104.85 -29.1,-16.82 m 1381.1,-31.55 -29.2,16.8 60.6,104.86 29.1,-16.82 -60.5,-104.84 m -1287,-131.54 -60.5,104.84 29.1,16.82 60.6,-104.86 -29.2,-16.8 m 1192.8,-31.56 -29.1,16.81 60.5,104.85 29.1,-16.81 -60.5,-104.85 m -1098.6,-131.55 -60.5,104.85 29.1,16.82 60.5,-104.85 -29.1,-16.82 m 1004.4,-31.55 -29.1,16.81 60.5,104.85 29.1,-16.81 -60.5,-104.85 m -910.2,-131.54 -60.6,104.85 29.2,16.8 60.5,-104.84 -29.1,-16.81 m 816.1,-31.57 -29.2,16.82 60.6,104.85 29.1,-16.81 -60.5,-104.86 m -722,-131.54 -60.5,104.85 29.1,16.82 60.6,-104.86 -29.2,-16.81 m 627.8,-31.55 -29.1,16.81 60.5,104.85 29.1,-16.81 -60.5,-104.85 m -533.6,-131.55 -60.5,104.86 29.1,16.81 60.5,-104.85 -29.1,-16.82 m 439.4,-31.55 -29.1,16.82 60.5,104.84 29.2,-16.81 -60.6,-104.85 m -345.2,-131.54 -60.6,104.84 29.2,16.82 60.5,-104.84 -29.1,-16.82 m 251.1,-31.56 -29.2,16.81 60.6,104.85 29.1,-16.81 -60.5,-104.85 m -157,-131.55 -60.5,104.86 29.1,16.81 60.6,-104.85 -29.2,-16.82 m 62.8,-31.55 -29.1,16.82 60.5,104.85 29.1,-16.82 -60.5,-104.85"
         style="fill:#4a4a4b;fill-opacity:1;fill-rule:nonzero;stroke:none"
         id="path204" />
      <path
         d="m 13885,10132.7 c 0,120.2 97.5,217.7 217.7,217.7 120.3,0 217.7,-97.5 217.7,-217.7 0,-120.3 -97.4,-217.72 -217.7,-217.72 -120.2,0 -217.7,97.42 -217.7,217.72"
         style="fill:#333c8b;fill-opacity:1;fill-rule:nonzero;stroke:none"
         id="path206" />
      <path
         d="m 14102.7,9914.98 c -72.1,0 -136,35.07 -175.7,89.12 -9.2,12.6 -17.1,26.3 -23.5,40.7 -11.9,26.9 -18.5,56.6 -18.5,87.9 0,120.2 97.5,217.7 217.7,217.7 v -435.42 0"
         style="fill:#1e256b;fill-opacity:1;fill-rule:nonzero;stroke:none"
         id="path208" />
      <path
         d="m 13859.8,7286.32 c 0,134.14 108.8,242.88 242.9,242.88 134.2,0 242.9,-108.74 242.9,-242.88 0,-134.14 -108.7,-242.88 -242.9,-242.88 -134.1,0 -242.9,108.74 -242.9,242.88"
         style="fill:#333c8b;fill-opacity:1;fill-rule:nonzero;stroke:none"
         id="path210" />
      <path
         d="m 14102.7,7043.44 c -134.1,0 -242.9,108.74 -242.9,242.88 0,134.14 108.8,242.88 242.9,242.88 v -485.76 0"
         style="fill:#1e256b;fill-opacity:1;fill-rule:nonzero;stroke:none"
         id="path212" />
      <path
         d="m 12627.3,9393.26 c 0,134.14 108.8,242.89 242.9,242.89 134.1,0 242.9,-108.75 242.9,-242.89 0,-134.14 -108.8,-242.88 -242.9,-242.88 -134.1,0 -242.9,108.74 -242.9,242.88"
         style="fill:#333c8b;fill-opacity:1;fill-rule:nonzero;stroke:none"
         id="path214" />
      <path
         d="m 15069.4,9407.56 c 0,150.5 122,272.51 272.5,272.51 150.5,0 272.5,-122.01 272.5,-272.51 0,-150.5 -122,-272.5 -272.5,-272.5 -150.5,0 -272.5,122 -272.5,272.5"
         style="fill:#333c8b;fill-opacity:1;fill-rule:nonzero;stroke:none"
         id="path216" />
      <path
         d="m 15341.9,9135.06 c -48.1,0 -93.3,12.47 -132.6,34.34 -9.8,5.49 -19.3,11.57 -28.3,18.19 -32.2,23.6 -59.1,54.1 -78.3,89.33 -5.4,9.8 -10.2,19.97 -14.3,30.45 -12.3,31.01 -19,64.81 -19,100.19 0,150.5 122,272.51 272.5,272.51 v -545.01 0"
         style="fill:#1e256b;fill-opacity:1;fill-rule:nonzero;stroke:none"
         id="path218" />
      <path
         d="m 15169,8015.16 c 0,91.81 74.4,166.25 166.2,166.25 91.9,0 166.3,-74.44 166.3,-166.25 0,-91.81 -74.4,-166.24 -166.3,-166.24 -91.8,0 -166.2,74.43 -166.2,166.24"
         style="fill:#333c8b;fill-opacity:1;fill-rule:nonzero;stroke:none"
         id="path220" />
      <path
         d="m 15335.2,7848.92 c -47.6,0 -90.5,20 -120.8,52.05 -10.8,11.45 -20,24.44 -27.3,38.61 -11.6,22.68 -18.1,48.37 -18.1,75.58 0,91.81 74.4,166.25 166.2,166.25 v -332.49 0"
         style="fill:#1e256b;fill-opacity:1;fill-rule:nonzero;stroke:none"
         id="path222" />
      <path
         d="m 12870.2,7828.76 c -102.9,0 -186.4,83.46 -186.4,186.4 0,102.94 83.5,186.4 186.4,186.4 103,0 186.4,-83.46 186.4,-186.4 0,-102.94 -83.4,-186.4 -186.4,-186.4 m 0,554.14 c -203.1,0 -367.7,-164.65 -367.7,-367.74 0,-203.09 164.6,-367.74 367.7,-367.74 203.1,0 367.7,164.65 367.7,367.74 0,203.09 -164.6,367.74 -367.7,367.74"
         style="fill:#333c8b;fill-opacity:1;fill-rule:nonzero;stroke:none"
         id="path224" />
      <path
         d="m 12870.2,7647.42 c -39.3,0 -77.2,6.18 -112.7,17.61 -60.3,19.38 -113.8,53.89 -156,99.07 -61.4,65.72 -99,154 -99,251.06 0,203.09 164.6,367.74 367.7,367.74 v -121.68 c -135.9,0 -246.1,-110.16 -246.1,-246.06 0,-135.89 110.2,-246.06 246.1,-246.06 v -121.68 0"
         style="fill:#1e256b;fill-opacity:1;fill-rule:nonzero;stroke:none"
         id="path226" />
      <path
         d="m 14360.8,8733.16 c -11.3,124.26 -110.2,223.16 -234.4,234.42 v 58.93 c 78.4,-5.76 148.8,-39.81 201.2,-92.16 52.3,-52.39 86.4,-122.78 92.1,-201.19 z m -33.2,-248.49 c -52.4,-52.37 -122.8,-86.4 -201.2,-92.16 v 58.93 c 124.2,11.25 223.1,110.16 234.4,234.41 h 58.9 c -5.7,-78.4 -39.8,-148.8 -92.1,-201.18 z m -248.5,21.79 v -33.84 c -54.7,5.4 -103.9,29.3 -141.4,65.35 l 43,42.95 c 31.8,-30.2 74.7,-48.85 122,-48.85 47.2,0 89.9,18.52 121.7,48.52 l 42.9,-42.95 c -37.4,-35.87 -86.4,-59.63 -140.9,-65 v 33.82 z m 0,-113.95 c -78.4,5.76 -148.8,39.79 -201.2,92.16 -52.4,52.38 -86.4,122.78 -92.2,201.18 h 59 c 11.2,-124.26 110.1,-223.16 234.4,-234.41 z m -201.2,541.84 c 52.4,52.35 122.8,86.4 201.2,92.16 v -58.93 c -124.3,-11.25 -223.2,-110.16 -234.4,-234.42 h -59 c 5.8,78.41 39.8,148.8 92.2,201.19 z m 73,-224.87 c 0,41.98 17,79.87 44.5,107.39 27.5,27.5 65.4,44.47 107.3,44.48 42,-0.01 79.9,-16.98 107.4,-44.48 27.5,-27.52 44.5,-65.41 44.5,-107.39 v 0 c 0,-41.94 -17,-79.83 -44.5,-107.34 -27.5,-27.49 -65.4,-44.46 -107.4,-44.46 -41.9,0 -79.8,16.97 -107.3,44.46 -27.5,27.51 -44.5,65.4 -44.5,107.34 z m -85.1,23.68 c 5.4,54.51 29.2,103.53 65.1,140.97 l 42.9,-42.96 c -30,-31.79 -48.5,-74.52 -48.5,-121.69 0,-47.33 18.6,-90.21 48.9,-122.03 l -43,-42.95 c -36.1,37.49 -60,86.65 -65.4,141.35 h 33.9 v 47.31 z m 473.8,-47.31 c -5.4,-54.49 -29.1,-103.52 -65,-140.96 l -42.9,42.95 c 29.9,31.77 48.5,74.5 48.5,121.64 0,47.36 -18.7,90.26 -48.9,122.05 l 42.9,42.95 c 36.1,-37.49 60,-86.64 65.4,-141.32 h -33.8 v -47.31 z m -213.2,226.7 v 33.85 c 54.7,-5.4 103.8,-29.32 141.3,-65.39 l -42.9,-42.94 c -31.8,30.21 -74.7,48.88 -122.1,48.88 -47.1,0 -89.9,-18.52 -121.6,-48.53 l -43,42.97 c 37.4,35.86 86.5,59.63 141,65.01 v -33.85 z m 337.3,-179.39 c -11.7,180.97 -156.4,325.62 -337.3,337.32 v 42.74 h -47.3 v -42.74 c -181,-11.7 -325.7,-156.35 -337.4,-337.32 h -42.7 v -47.31 h 42.7 c 11.7,-180.97 156.4,-325.63 337.4,-337.31 v -42.75 h 47.3 v 42.75 c 180.9,11.7 325.6,156.34 337.3,337.31 h 42.7 v 47.31 h -42.7"
         style="fill:#4a4a4b;fill-opacity:1;fill-rule:nonzero;stroke:none"
         id="path228" />
      <path
         d="m 12870.2,9150.38 c -134.1,0 -242.9,108.74 -242.9,242.88 0,134.14 108.8,242.89 242.9,242.89 v -485.77 0"
         style="fill:#243276;fill-opacity:1;fill-rule:nonzero;stroke:none"
         id="path230" />
      <path
         d="m 6819.83,2387.39 -47.5,43.12 74.06,81.61 49.87,-2.94 10.5,-14.73 -22.91,-16.33 10.05,-9.12 z m 146.43,-86.86 -74.49,104.45 52.22,37.26 74.5,-104.47 z m -275.75,-55.64 -47.5,43.12 86.21,95 47.5,-43.11 z m 387.47,-101.04 -74.48,104.45 52.22,37.25 74.49,-104.46 z m 1022.37,-10.72 -40.29,49.92 99.83,80.57 40.3,-49.91 z m -1539.17,-30.74 -47.5,43.12 86.21,95 47.5,-43.12 z m 1389.43,-90.12 -40.29,49.91 99.83,80.57 40.29,-49.91 z m -760.9,-25.11 -74.49,104.46 52.23,37.25 74.48,-104.46 z m -757.85,-27.27 -47.5,43.12 86.21,95 47.5,-43.11 z m 1369,-68.49 -40.28,49.91 99.82,80.57 40.29,-49.91 z m -499.42,-60.92 -74.5,104.46 52.24,37.25 74.48,-104.47 z m -998.91,-13.09 -47.5,43.12 86.21,95 47.5,-43.12 z m 1348.58,-46.85 -40.28,49.91 99.83,80.58 40.29,-49.92 z m -2747.83,-26.23 -106.13,72.07 36.03,53.07 106.14,-72.08 z m -197.08,-37.13 -47.49,43.1 86.22,95 47.5,-43.11 z m 1467,-32.29 -47.5,43.11 86.21,95.01 47.5,-43.12 z m 1239.95,-1.09 -74.48,104.46 52.23,37.25 74.48,-104.47 z m 88.23,-24.13 -40.3,49.91 99.84,80.58 40.28,-49.92 z m -2438.9,-13.47 -106.13,72.07 36.03,53.08 106.14,-72.07 z m -485.61,-71.51 -47.49,43.1 86.22,94.99 47.5,-43.1 z m 1467.01,-32.3 -47.5,43.12 86.21,94.99 47.5,-43.11 z m -822.19,-4.29 -106.14,72.07 36.03,53.06 106.14,-72.07 z m -774.16,-105.9 -47.5,43.1 86.23,95 47.5,-43.11 z m 933.36,-2.21 -106.13,72.07 36.03,53.07 106.13,-72.07 z m 533.66,-30.1 -47.5,43.11 86.21,95 47.51,-43.11 z m -374.46,-78.01 -106.13,72.08 36.03,53.07 106.13,-72.07 z m -1221.9,-32.18 -47.5,43.11 86.23,95 47.49,-43.11 z m 1467.03,-32.31 -47.5,43.11 86.23,95 47.49,-43.12 z m -85.93,-43.59 -106.14,72.05 36.04,53.07 106.13,-72.07 z m -1510.43,-66.6 -47.5,43.1 86.22,95.01 47.5,-43.1 z m -129.34,-142.501 -47.5,43.101 86.22,95 47.5,-43.1 z m -129.34,-142.5 -47.49,43.102 86.22,95 47.5,-43.102 z m -129.34,-142.5 -47.49,43.203 86.22,95 47.5,-43.203 -86.23,-95"
         style="fill:#4a4a4b;fill-opacity:1;fill-rule:nonzero;stroke:none"
         id="path232" />
      <path
         d="m 3910.27,731.301 c 0,-73.602 -59.63,-133.199 -133.18,-133.199 -73.55,0 -133.17,59.597 -133.17,133.199 0,73.5 59.62,133.199 133.17,133.199 73.55,0 133.18,-59.699 133.18,-133.199"
         style="fill:#333c8b;fill-opacity:1;fill-rule:nonzero;stroke:none"
         id="path234" />
      <path
         d="m 4910.38,1849.43 c 0,-73.54 -59.62,-133.17 -133.17,-133.17 -73.56,0 -133.18,59.63 -133.18,133.17 0,73.56 59.62,133.19 133.18,133.19 73.55,0 133.17,-59.63 133.17,-133.19"
         style="fill:#333c8b;fill-opacity:1;fill-rule:nonzero;stroke:none"
         id="path236" />
      <path
         d="m 5852.69,1238.97 c 0,-73.57 -59.63,-133.17 -133.18,-133.17 -73.55,0 -133.18,59.6 -133.18,133.17 0,73.56 59.63,133.18 133.18,133.18 73.55,0 133.18,-59.62 133.18,-133.18"
         style="fill:#333c8b;fill-opacity:1;fill-rule:nonzero;stroke:none"
         id="path238" />
      <path
         d="m 7003.32,2490.56 c 0,-73.56 -59.63,-133.18 -133.17,-133.18 -73.56,0 -133.19,59.62 -133.19,133.18 0,73.55 59.63,133.17 133.19,133.17 73.54,0 133.17,-59.62 133.17,-133.17"
         style="fill:#8e1428;fill-opacity:1;fill-rule:nonzero;stroke:none"
         id="path240" />
      <path
         d="m 7595.83,1674.8 c 0,-73.55 -59.63,-133.17 -133.17,-133.17 -73.56,0 -133.18,59.62 -133.18,133.17 0,73.56 59.62,133.18 133.18,133.18 73.54,0 133.17,-59.62 133.17,-133.18"
         style="fill:#333c8b;fill-opacity:1;fill-rule:nonzero;stroke:none"
         id="path242" />
      <path
         d="m 8358.77,2274.3 c 0,-73.55 -59.62,-133.18 -133.17,-133.18 -73.56,0 -133.18,59.63 -133.18,133.18 0,73.55 59.62,133.18 133.18,133.18 73.55,0 133.17,-59.63 133.17,-133.18"
         style="fill:#333c8b;fill-opacity:1;fill-rule:nonzero;stroke:none"
         id="path244" />
      <path
         d="m 11807.5,10399.5 c 0,-83.1 -67.3,-150.4 -150.3,-150.4 -83.1,0 -150.4,67.3 -150.4,150.4 0,83 67.3,150.4 150.4,150.4 83,0 150.3,-67.4 150.3,-150.4"
         style="fill:#dfaaae;fill-opacity:1;fill-rule:nonzero;stroke:none"
         id="path246" />
      <path
         d="m 14905.2,5809.04 -1.9,0.12 c -1.1,0.08 -2.3,0.17 -3.5,0.18 -161.1,2.87 -292.3,136.56 -292.3,297.96 0,161.44 131.2,295.11 292.2,298 1.2,0.02 2.5,0.08 3.8,0.16 l 1.7,0.12 c 164.1,0 297.7,-133.81 297.7,-298.28 0,-164.46 -133.6,-298.26 -297.7,-298.26 z m 0,631.5 c -1.4,0 -2.8,-0.08 -4.2,-0.21 l -1.8,-0.1 c -180,-3.2 -326.5,-152.58 -326.5,-332.93 0,-180.32 146.5,-329.69 326.5,-332.93 l 1.7,-0.09 c 1.5,-0.09 2.9,-0.16 4.3,-0.16 183.4,0 332.6,149.47 332.6,333.18 0,183.71 -149.2,333.24 -332.6,333.24"
         style="fill:#808083;fill-opacity:1;fill-rule:nonzero;stroke:none"
         id="path248" />
      <path
         d="m 15324.6,5966.06 c -5.6,-1.25 -10.1,-5.13 -12.3,-10.35 -2.2,-5.26 -1.7,-11.28 1.3,-16.06 l 101.4,-159.9 -165.5,-165.91 -159.6,101.51 c -4.9,3.06 -10.8,3.56 -16.1,1.4 -5.2,-2.23 -9.1,-6.78 -10.3,-12.36 l -41.2,-184.8 -234.1,-0.03 -41.3,184.83 c -1.2,5.58 -5,10.21 -10.3,12.37 -2.1,0.9 -4.4,1.33 -6.7,1.33 -3.2,0 -6.5,-0.9 -9.3,-2.68 l -159.6,-101.57 -165.5,165.85 101.3,159.96 c 3,4.78 3.6,10.8 1.4,16.06 -2.2,5.22 -6.8,9.1 -12.4,10.35 l -184.4,41.28 -0.1,234.57 184.5,41.29 c 5.6,1.24 10.2,5.12 12.4,10.34 2.2,5.28 1.6,11.28 -1.4,16.11 l -101.4,159.91 165.6,165.88 159.6,-101.54 c 4.8,-3.1 10.8,-3.63 16,-1.45 5.2,2.22 9.1,6.76 10.3,12.34 l 41.2,184.94 h 234.1 l 41.2,-184.89 c 1.3,-5.57 5.2,-10.17 10.4,-12.34 5.2,-2.17 11.2,-1.7 16,1.4 l 159.6,101.54 165.6,-165.86 -101.4,-159.93 c -3,-4.83 -3.5,-10.8 -1.4,-16.06 2.2,-5.27 6.8,-9.15 12.4,-10.39 l 184.5,-41.27 v -234.58 z m 205.7,306.92 -173.9,38.94 95.5,150.74 c 4.4,6.92 3.4,15.95 -2.4,21.72 l -185.3,185.66 c -5.8,5.81 -14.8,6.8 -21.7,2.37 l -150.4,-95.65 -38.9,174.23 c -1.8,7.99 -8.8,13.65 -17,13.65 h -262 c -8.2,0 -15.3,-5.66 -17,-13.65 l -38.9,-174.27 -150.4,95.69 c -6.9,4.43 -15.9,3.44 -21.7,-2.37 l -185.3,-185.69 c -5.8,-5.78 -6.8,-14.79 -2.4,-21.71 l 95.5,-150.72 -173.9,-38.96 c -8,-1.79 -13.7,-8.87 -13.7,-17.06 l 0.1,-262.55 c 0,-8.22 5.7,-15.3 13.6,-17.06 l 173.9,-38.94 -95.5,-150.76 c -4.4,-6.9 -3.4,-15.94 2.4,-21.72 l 185.3,-185.62 c 5.8,-5.85 14.8,-6.79 21.7,-2.4 l 150.4,95.67 38.9,-174.24 c 1.8,-8 8.9,-13.72 17,-13.72 l 262.1,0.06 c 8.1,0 15.2,5.66 17,13.66 l 38.8,174.24 150.5,-95.67 c 6.9,-4.39 15.9,-3.45 21.7,2.4 l 185.2,185.67 c 5.8,5.75 6.8,14.83 2.4,21.7 l -95.5,150.73 173.9,39 c 8,1.77 13.7,8.86 13.7,17.04 l -0.1,262.54 c 0,8.2 -5.6,15.28 -13.6,17.05"
         style="fill:#808083;fill-opacity:1;fill-rule:nonzero;stroke:none"
         id="path250" />
      <path
         d="m 15964.8,5265.05 -1.4,0.09 c -0.9,0.07 -1.8,0.12 -2.7,0.13 -122.7,2.19 -222.5,103.97 -222.5,226.85 0,122.89 99.8,224.66 222.4,226.85 1,0.02 1.9,0.06 2.9,0.13 l 1.3,0.08 c 125,0 226.6,-101.87 226.6,-227.06 0,-125.21 -101.6,-227.07 -226.6,-227.07 z m 0,480.75 c -1,0 -2.1,-0.06 -3.2,-0.16 l -1.3,-0.06 c -137.1,-2.45 -248.6,-116.18 -248.6,-253.46 0,-137.29 111.5,-251.01 248.6,-253.47 l 1.3,-0.07 c 1.1,-0.06 2.1,-0.11 3.2,-0.11 139.6,0 253.2,113.79 253.2,253.65 0,139.84 -113.6,253.68 -253.2,253.68"
         style="fill:#333c8b;fill-opacity:1;fill-rule:nonzero;stroke:none"
         id="path252" />
      <path
         d="m 16284.1,5384.59 c -4.2,-0.95 -7.7,-3.92 -9.4,-7.88 -1.6,-4.01 -1.2,-8.59 1.1,-12.23 l 77.1,-121.74 -126,-126.29 -121.5,77.27 c -3.7,2.33 -8.2,2.71 -12.2,1.07 -4,-1.7 -7,-5.16 -7.9,-9.41 l -31.4,-140.69 -178.2,-0.02 -31.4,140.71 c -0.9,4.25 -3.8,7.76 -7.8,9.41 -1.7,0.69 -3.4,1.01 -5.1,1.01 -2.5,0 -5,-0.68 -7.1,-2.03 l -121.5,-77.32 -126.1,126.25 77.2,121.78 c 2.3,3.64 2.7,8.22 1,12.23 -1.6,3.96 -5.1,6.93 -9.3,7.88 l -140.5,31.43 v 178.57 l 140.5,31.44 c 4.2,0.93 7.7,3.88 9.3,7.86 1.7,4.02 1.3,8.6 -1,12.26 l -77.2,121.75 126.1,126.28 121.4,-77.31 c 3.7,-2.35 8.3,-2.75 12.2,-1.1 4,1.69 7,5.15 7.9,9.41 l 31.4,140.78 h 178.2 l 31.4,-140.75 c 0.9,-4.24 3.9,-7.75 7.9,-9.4 4,-1.65 8.5,-1.29 12.2,1.06 l 121.5,77.31 126,-126.27 -77.1,-121.76 c -2.4,-3.66 -2.8,-8.21 -1.1,-12.21 1.7,-4.03 5.1,-6.98 9.4,-7.91 l 140.4,-31.43 0.1,-178.57 z m 156.6,233.64 -132.4,29.66 72.7,114.75 c 3.4,5.27 2.6,12.15 -1.8,16.54 l -141.1,141.34 c -4.4,4.42 -11.3,5.17 -16.5,1.8 l -114.5,-72.82 -29.6,132.64 c -1.3,6.09 -6.7,10.4 -13,10.4 h -199.4 c -6.3,0 -11.6,-4.31 -13,-10.4 l -29.6,-132.67 -114.5,72.85 c -5.2,3.37 -12.1,2.62 -16.5,-1.8 l -141.1,-141.37 c -4.3,-4.39 -5.1,-11.25 -1.8,-16.52 l 72.7,-114.74 -132.4,-29.67 c -6.1,-1.35 -10.4,-6.75 -10.4,-12.99 l 0.1,-199.87 c 0,-6.26 4.3,-11.65 10.4,-12.99 l 132.3,-29.64 -72.7,-114.78 c -3.3,-5.25 -2.5,-12.13 1.8,-16.52 l 141.1,-141.32 c 4.4,-4.46 11.3,-5.17 16.5,-1.83 l 114.5,72.83 29.6,-132.64 c 1.4,-6.09 6.8,-10.45 13,-10.45 l 199.5,0.05 c 6.2,0 11.6,4.31 12.9,10.4 l 29.6,132.64 114.6,-72.83 c 5.2,-3.34 12.1,-2.63 16.5,1.83 l 141,141.35 c 4.4,4.37 5.1,11.28 1.8,16.52 l -72.7,114.75 132.4,29.69 c 6.1,1.35 10.4,6.74 10.4,12.97 v 199.87 c 0,6.24 -4.3,11.63 -10.4,12.97"
         style="fill:#333c8b;fill-opacity:1;fill-rule:nonzero;stroke:none"
         id="path254" />
      <path
         d="m 3827.93,4791.38 v 1.07 c -10.44,-0.31 -20.87,-0.78 -31.43,-0.78 -10.51,0 -20.92,0.47 -31.39,0.78 -4.09,0.13 -8.22,0.13 -12.35,0.31 -10.67,0.49 -21.29,1.33 -31.91,2.12 -255.72,19.79 -484.11,138.55 -646.5,318.27 -14.06,15.51 -27.4,31.61 -40.42,47.99 -129.83,163.6 -208.22,369.56 -210.62,593.55 -0.03,3.49 -0.27,6.92 -0.27,10.44 0,17.58 0.54,34.98 1.48,52.35 8.7,163.3 58.07,315.85 137.76,448.21 25,-34.54 61.44,-60.11 103.78,-71.29 -65.98,-111.83 -107.24,-239.94 -115.61,-376.92 h 156.52 c -3.09,-13.5 -4.88,-27.48 -4.88,-41.9 0,-7.04 0.47,-14.05 1.23,-20.89 h -154.39 c 2.4,-196.41 71.85,-376.85 186.54,-519.6 62.79,40.93 129.55,76.28 199.68,105.09 -30.13,79.57 -51.95,163.04 -64.63,249.54 6.03,-0.61 12.15,-0.94 18.35,-0.94 15.35,0 30.22,2.08 44.51,5.55 12.12,-80.28 32.46,-157.91 60.47,-231.86 116.67,40.95 241.45,64.28 371.26,67.09 v 325.13 h -290.7 c 0.77,6.84 1.25,13.85 1.25,20.89 0,14.42 -1.79,28.4 -4.9,41.9 h 294.35 v 304.18 c -127.11,2.73 -249.4,25.18 -363.97,64.59 -29.24,-73.34 -51.05,-150.41 -64.62,-230.26 -15.24,4.04 -31.16,6.41 -47.65,6.41 -5.07,0 -10.03,-0.37 -14.99,-0.76 14.14,85.53 37.22,168.04 68.42,246.54 -30.92,12.5 -61.11,26.38 -90.68,41.28 14.15,15.61 25.85,33.42 34.14,53.08 26.54,-13.18 53.58,-25.47 81.22,-36.59 54.16,117.85 126.73,225.47 214.13,319.24 -107.77,-28.34 -206.95,-77.75 -293.49,-143.04 -15.72,40.44 -45,74.07 -82.35,95.24 145.23,111.45 322.5,183.05 515.58,197.97 10.62,0.81 21.24,1.64 31.91,2.14 4.13,0.18 8.26,0.18 12.35,0.31 10.47,0.34 20.88,0.79 31.39,0.79 10.56,0 20.99,-0.45 31.43,-0.79 v 1.07 l 1.55,-1.09 c 11.18,-0.4 22.31,-0.97 33.4,-1.69 251.38,-17.05 476.78,-129.85 640.06,-302.23 14.42,-15.22 28.47,-30.76 41.88,-46.89 100.04,-120.14 171.34,-264.8 204.34,-423.37 -18.16,5.97 -37.53,9.23 -57.66,9.23 -24.7,0 -48.27,-4.92 -69.88,-13.7 -31.16,132.68 -93.47,253.47 -178.97,354.08 -20.97,-13.57 -42.52,-26.2 -64.33,-38.46 -5.03,20.83 -13.48,40.31 -24.86,57.76 15.64,8.9 31.08,18.14 46.24,27.74 -108.47,109.91 -246.65,190.34 -401.38,228.28 52.06,-55.41 98.17,-116.23 139.1,-180.7 -20.01,-6.77 -38.48,-16.79 -54.82,-29.53 -54.13,84.67 -118.83,161.97 -192.77,229.46 -20.43,2.24 -41.06,3.67 -61.9,4.43 v -427.48 c 62.82,1.98 124.19,9.53 184.05,21.3 2.85,-21.38 9.32,-41.6 18.8,-60.11 -65.92,-13.36 -133.52,-21.93 -202.85,-24.02 v -304.41 h 433.1 c -3.56,78.76 -15.35,155.41 -34.2,229.25 21.28,3.44 41.4,10.31 59.69,20.34 20.85,-80.24 33.65,-163.75 37.33,-249.59 h 183.71 c -1.75,-10.23 -2.87,-20.68 -2.87,-31.42 0,-10.72 1.12,-21.14 2.85,-31.37 h -182.63 c -0.87,-103.67 -15.18,-204.14 -40.8,-300.04 -17.16,12.7 -36.47,22.61 -57.4,28.86 22.17,86.88 34.55,177.62 35.4,271.18 h -434.18 v -325.38 c 64.82,-1.96 128.35,-9.14 190.21,-20.97 -11.96,-17.81 -20.74,-37.84 -25.99,-59.26 -53.58,9.56 -108.36,15.63 -164.22,17.44 v -448.45 c 20.84,0.75 41.47,2.21 61.9,4.45 71.74,65.48 134.96,140.04 188.1,221.77 18.1,-10.86 38.14,-18.83 59.56,-23.02 -40.81,-64.12 -87.3,-124.37 -139.17,-179.56 160.71,39.43 303.51,124.75 413.78,241.29 -22.76,14.81 -46.23,28.59 -70.07,41.82 9.15,19.25 15.21,40.22 17.25,62.38 32.49,-17.47 64.18,-36.28 94.8,-56.55 87.75,107.73 149.5,237.33 175.85,379.27 19.32,-6.77 39.97,-10.64 61.57,-10.64 23.26,0 45.42,4.45 65.96,12.23 -27.16,-170.49 -98.53,-326.39 -202.3,-455.42 -13.14,-16.31 -26.67,-32.29 -40.79,-47.74 -164.12,-179.22 -394.25,-296.76 -651.49,-314.16 -11.09,-0.78 -22.22,-1.33 -33.4,-1.69 l -1.55,-1.12 m -62.82,575.37 c -121.36,-2.77 -238.07,-24.47 -347.3,-62.43 64.35,-145.1 157.87,-274.42 273.37,-380.3 24.36,-3.01 49,-5.01 73.93,-5.95 v 448.68 m -406.14,-84.63 c -63.77,-26.22 -124.57,-58.13 -181.97,-94.95 107.7,-115.36 247.01,-200.79 404.11,-242.1 -91.77,98.46 -167.23,212.19 -222.14,337.05 m 406.14,1330.08 c -24.93,-0.94 -49.57,-2.95 -73.93,-6 -110.66,-101.4 -201.16,-224.38 -265.15,-362.1 106.89,-36.21 220.77,-56.96 339.08,-59.62 v 427.72"
         style="fill:#c8c9cb;fill-opacity:1;fill-rule:nonzero;stroke:none"
         id="path256" />
      <path
         d="m 4691.5,5902.77 c -20.45,0 -39.41,-5.72 -56.16,-15 -26.96,-14.95 -47.24,-40.03 -55.76,-70.29 -2.84,-10.06 -4.84,-20.45 -4.84,-31.42 0,-10.95 2,-21.32 4.84,-31.37 9.01,-32.06 31.16,-58.37 60.52,-72.93 15.57,-7.71 32.89,-12.45 51.4,-12.45 29.07,0 55.35,11.07 75.8,28.7 24.85,21.38 40.97,52.74 40.97,88.05 0,37.41 -17.99,70.36 -45.44,91.74 -19.77,15.44 -44.33,24.97 -71.33,24.97"
         style="fill:#333c8b;fill-opacity:1;fill-rule:nonzero;stroke:none"
         id="path258" />
      <path
         d="m 4207.29,5415.68 c -10.8,3.3 -22.05,5.65 -33.92,5.65 -30.06,0 -57.22,-11.74 -77.95,-30.47 -16.53,-14.95 -28.64,-34.4 -34.51,-56.62 -2.54,-9.5 -4.33,-19.36 -4.33,-29.69 0,-42.74 23.38,-79.83 57.75,-100.15 17.39,-10.31 37.42,-16.62 59.04,-16.62 1.37,0 2.63,0.37 3.95,0.42 45.71,1.57 84.72,29.3 102.47,68.81 6.53,14.59 10.34,30.61 10.34,47.54 0,6.07 -0.9,11.85 -1.79,17.68 -3.38,21.96 -12.85,41.73 -26.7,57.9 -14.25,16.62 -32.91,28.99 -54.35,35.55"
         style="fill:#333c8b;fill-opacity:1;fill-rule:nonzero;stroke:none"
         id="path260" />
      <path
         d="m 3326.95,5885.46 c -11.99,4.14 -24.67,6.9 -38.08,6.9 -8.42,0 -16.62,-1.01 -24.54,-2.68 -38.7,-8.36 -70.1,-35.95 -84.12,-72.2 -5.04,-13.03 -8.09,-27.09 -8.09,-41.9 0,-7.14 0.88,-14.1 2.08,-20.89 8.35,-45.72 43.23,-81.99 88.08,-92.52 8.59,-2 17.42,-3.36 26.59,-3.36 12.7,0 24.71,2.58 36.16,6.31 40.15,13.23 70.75,47.21 78.48,89.57 1.25,6.79 2.09,13.75 2.09,20.89 0,14.81 -3.04,28.87 -8.07,41.9 -12.33,31.86 -38.18,56.65 -70.58,67.98"
         style="fill:#333c8b;fill-opacity:1;fill-rule:nonzero;stroke:none"
         id="path262" />
      <path
         d="m 4196.92,6347.71 c -7.49,0 -14.75,-0.86 -21.86,-2.24 -21.4,-4.09 -40.51,-14.17 -56.09,-28.23 -23.65,-21.36 -38.83,-51.97 -38.83,-86.32 0,-3.18 0.7,-6.22 0.95,-9.38 1.8,-21.98 9.39,-42.24 21.72,-59.12 21.25,-29.09 55.37,-48.29 94.11,-48.29 3.42,0 6.64,0.73 9.98,1.07 21.92,1.85 42.06,9.56 58.85,21.9 28.91,21.26 47.93,55.27 47.93,93.82 0,3.31 -0.74,6.43 -1,9.67 -1.82,22 -9.51,42.24 -21.89,59.12 -21.26,28.9 -55.28,48 -93.87,48"
         style="fill:#333c8b;fill-opacity:1;fill-rule:nonzero;stroke:none"
         id="path264" />
      <path
         d="m 3144.51,6486.94 c -9.92,2.71 -20.17,4.64 -30.97,4.64 -64.41,0 -116.77,-52.38 -116.77,-116.71 0,-15.5 3.17,-30.24 8.69,-43.78 16.65,-41 55.93,-70.09 102.31,-72.38 1.96,-0.14 3.82,-0.62 5.77,-0.62 27.86,0 53.12,10.23 73.23,26.56 16.47,13.45 29.14,31.02 36.39,51.39 4.34,12.21 7.14,25.16 7.14,38.83 0,6.41 -0.9,12.58 -1.9,18.7 -7.36,45.14 -40.5,81.31 -83.89,93.37"
         style="fill:#333c8b;fill-opacity:1;fill-rule:nonzero;stroke:none"
         id="path266" />
      <path
         d="m 11452.1,5774.17 h -621.3 v 83.99 h 593.3 l 367.2,275.35 h 591.2 v -84 h -563.2 l -367.2,-275.34"
         style="fill:#a2a6ac;fill-opacity:1;fill-rule:nonzero;stroke:none"
         id="path268" />
      <path
         d="m 9434.41,6897.01 h -83.99 v 1117.66 l 365.45,847.88 77.14,-33.25 -358.6,-831.97 V 6897.01"
         style="fill:#a2a6ac;fill-opacity:1;fill-rule:nonzero;stroke:none"
         id="path270" />
      <path
         d="m 11948.5,6383.66 h -1117.7 v 84 h 1100.4 l 831.9,358.58 33.3,-77.14 -847.9,-365.44"
         style="fill:#a2a6ac;fill-opacity:1;fill-rule:nonzero;stroke:none"
         id="path272" />
      <path
         d="m 10035.1,6897.01 h -84.02 v 668.71 l -286.51,402.14 68.41,48.74 302.12,-424.01 v -695.58"
         style="fill:#a2a6ac;fill-opacity:1;fill-rule:nonzero;stroke:none"
         id="path274" />
      <path
         d="m 9519.79,6897.01 c 0,-70.34 -57.03,-127.37 -127.37,-127.37 -70.35,0 -127.38,57.03 -127.38,127.37 0,70.35 57.03,127.38 127.38,127.38 70.34,0 127.37,-57.03 127.37,-127.38"
         style="fill:#a2a6ac;fill-opacity:1;fill-rule:nonzero;stroke:none"
         id="path276" />
      <path
         d="m 10120.5,6897.01 c 0,-70.34 -57.1,-127.37 -127.41,-127.37 -70.36,0 -127.39,57.03 -127.39,127.37 0,70.35 57.03,127.38 127.39,127.38 70.31,0 127.41,-57.03 127.41,-127.38"
         style="fill:#a2a6ac;fill-opacity:1;fill-rule:nonzero;stroke:none"
         id="path278" />
      <path
         d="m 10958.2,5816.16 c 0,-70.34 -57,-127.37 -127.4,-127.37 -70.3,0 -127.3,57.03 -127.3,127.37 0,70.35 57,127.38 127.3,127.38 70.4,0 127.4,-57.03 127.4,-127.38"
         style="fill:#a2a6ac;fill-opacity:1;fill-rule:nonzero;stroke:none"
         id="path280" />
      <path
         d="m 12907.1,6787.68 c 0,-70.36 -57,-127.39 -127.3,-127.39 -70.4,0 -127.4,57.03 -127.4,127.39 0,70.35 57,127.37 127.4,127.37 70.3,0 127.3,-57.02 127.3,-127.37"
         style="fill:#a2a6ac;fill-opacity:1;fill-rule:nonzero;stroke:none"
         id="path282" />
      <path
         d="m 12509.9,6091.51 c 0,-70.35 -57,-127.38 -127.4,-127.38 -70.3,0 -127.3,57.03 -127.3,127.38 0,70.35 57,127.38 127.3,127.38 70.4,0 127.4,-57.03 127.4,-127.38"
         style="fill:#a2a6ac;fill-opacity:1;fill-rule:nonzero;stroke:none"
         id="path284" />
      <path
         d="m 10958.2,6425.65 c 0,-70.34 -57,-127.37 -127.4,-127.37 -70.3,0 -127.3,57.03 -127.3,127.37 0,70.36 57,127.39 127.3,127.39 70.4,0 127.4,-57.03 127.4,-127.39"
         style="fill:#a2a6ac;fill-opacity:1;fill-rule:nonzero;stroke:none"
         id="path286" />
      <path
         d="m 8748.83,6897.01 h -84 v 681.42 l -554.18,985.29 73.22,41.18 564.96,-1004.47 v -703.42"
         style="fill:#a2a6ac;fill-opacity:1;fill-rule:nonzero;stroke:none"
         id="path288" />
      <path
         d="m 8834.21,6897.01 c 0,-70.34 -57.03,-127.37 -127.37,-127.37 -70.36,0 -127.39,57.03 -127.39,127.37 0,70.35 57.03,127.38 127.39,127.38 70.34,0 127.37,-57.03 127.37,-127.38"
         style="fill:#a2a6ac;fill-opacity:1;fill-rule:nonzero;stroke:none"
         id="path290" />
      <path
         d="m 8274.64,8584.31 c 0,-70.35 -57.03,-127.38 -127.37,-127.38 -70.36,0 -127.39,57.03 -127.39,127.38 0,70.35 57.03,127.38 127.39,127.38 70.34,0 127.37,-57.03 127.37,-127.38"
         style="fill:#a2a6ac;fill-opacity:1;fill-rule:nonzero;stroke:none"
         id="path292" />
      <path
         d="m 9826.15,7992.24 c 0,-70.36 -57.03,-127.39 -127.37,-127.39 -70.35,0 -127.38,57.03 -127.38,127.39 0,70.34 57.03,127.37 127.38,127.37 70.34,0 127.37,-57.03 127.37,-127.37"
         style="fill:#a2a6ac;fill-opacity:1;fill-rule:nonzero;stroke:none"
         id="path294" />
      <path
         d="m 10501.9,6897.01 h -84 v 1112.04 l 576.7,604.25 60.8,-57.99 -553.5,-579.9 v -1078.4"
         style="fill:#a2a6ac;fill-opacity:1;fill-rule:nonzero;stroke:none"
         id="path296" />
      <path
         d="m 10587.3,6897.01 c 0,-70.34 -57,-127.37 -127.4,-127.37 -70.3,0 -127.4,57.03 -127.4,127.37 0,70.35 57.1,127.38 127.4,127.38 70.4,0 127.4,-57.03 127.4,-127.38"
         style="fill:#a2a6ac;fill-opacity:1;fill-rule:nonzero;stroke:none"
         id="path298" />
      <path
         d="m 11106.7,8556.77 c 0,-70.35 -57,-127.38 -127.4,-127.38 -70.3,0 -127.4,57.03 -127.4,127.38 0,70.35 57.1,127.37 127.4,127.37 70.4,0 127.4,-57.02 127.4,-127.37"
         style="fill:#a2a6ac;fill-opacity:1;fill-rule:nonzero;stroke:none"
         id="path300" />
      <path
         d="m 12508.5,4684.41 -579.9,553.5 h -1078.4 v 83.99 h 1112 l 604.3,-576.72 -58,-60.77"
         style="fill:#a2a6ac;fill-opacity:1;fill-rule:nonzero;stroke:none"
         id="path302" />
      <path
         d="m 10850.2,5152.53 c -70.4,0 -127.4,57.03 -127.4,127.37 0,70.35 57,127.39 127.4,127.39 70.3,0 127.3,-57.04 127.3,-127.39 0,-70.34 -57,-127.37 -127.3,-127.37"
         style="fill:#a2a6ac;fill-opacity:1;fill-rule:nonzero;stroke:none"
         id="path304" />
      <path
         d="m 12509.9,4633.13 c -70.3,0 -127.4,57.03 -127.4,127.38 0,70.35 57.1,127.37 127.4,127.37 70.4,0 127.4,-57.02 127.4,-127.37 0,-70.35 -57,-127.38 -127.4,-127.38"
         style="fill:#a2a6ac;fill-opacity:1;fill-rule:nonzero;stroke:none"
         id="path306" />
      <path
         d="m 9410.7,2310.72 -77.13,33.25 358.59,831.97 v 1100.32 h 83.99 V 3158.6 L 9410.7,2310.72"
         style="fill:#a2a6ac;fill-opacity:1;fill-rule:nonzero;stroke:none"
         id="path308" />
      <path
         d="m 9393.59,3156.67 -302.1,424.01 v 695.58 h 84 v -668.71 l 286.51,-402.14 -68.41,-48.74"
         style="fill:#a2a6ac;fill-opacity:1;fill-rule:nonzero;stroke:none"
         id="path310" />
      <path
         d="m 8131.92,2559.97 -60.76,57.99 553.51,579.91 v 1078.39 h 83.99 V 3164.22 l -576.74,-604.25"
         style="fill:#a2a6ac;fill-opacity:1;fill-rule:nonzero;stroke:none"
         id="path312" />
      <path
         d="m 9606.78,4276.26 c 0,70.35 57.03,127.37 127.38,127.37 70.34,0 127.37,-57.02 127.37,-127.37 0,-70.35 -57.03,-127.37 -127.37,-127.37 -70.35,0 -127.38,57.02 -127.38,127.37"
         style="fill:#a2a6ac;fill-opacity:1;fill-rule:nonzero;stroke:none"
         id="path314" />
      <path
         d="m 9006.11,4276.26 c 0,70.35 57.03,127.37 127.39,127.37 70.34,0 127.37,-57.02 127.37,-127.37 0,-70.35 -57.03,-127.37 -127.37,-127.37 -70.36,0 -127.39,57.02 -127.39,127.37"
         style="fill:#a2a6ac;fill-opacity:1;fill-rule:nonzero;stroke:none"
         id="path316" />
      <path
         d="m 8539.29,4276.26 c 0,70.35 57.02,127.37 127.37,127.37 70.35,0 127.37,-57.02 127.37,-127.37 0,-70.35 -57.02,-127.37 -127.37,-127.37 -70.35,0 -127.37,57.02 -127.37,127.37"
         style="fill:#a2a6ac;fill-opacity:1;fill-rule:nonzero;stroke:none"
         id="path318" />
      <path
         d="m 10942.7,2568.38 -565,1004.46 v 703.42 h 84 v -681.42 l 554.2,-985.29 -73.2,-41.17"
         style="fill:#a2a6ac;fill-opacity:1;fill-rule:nonzero;stroke:none"
         id="path320" />
      <path
         d="m 10292.4,4276.26 c 0,70.35 57,127.37 127.3,127.37 70.4,0 127.4,-57.02 127.4,-127.37 0,-70.35 -57,-127.37 -127.4,-127.37 -70.3,0 -127.3,57.02 -127.3,127.37"
         style="fill:#a2a6ac;fill-opacity:1;fill-rule:nonzero;stroke:none"
         id="path322" />
      <path
         d="m 10851.9,2588.96 c 0,70.36 57.1,127.38 127.4,127.38 70.4,0 127.4,-57.02 127.4,-127.38 0,-70.35 -57,-127.37 -127.4,-127.37 -70.3,0 -127.4,57.02 -127.4,127.37"
         style="fill:#a2a6ac;fill-opacity:1;fill-rule:nonzero;stroke:none"
         id="path324" />
      <path
         d="m 9244.77,2327.35 c 0,70.35 57.02,127.38 127.37,127.38 70.35,0 127.37,-57.03 127.37,-127.38 0,-70.35 -57.02,-127.38 -127.37,-127.38 -70.35,0 -127.37,57.03 -127.37,127.38"
         style="fill:#a2a6ac;fill-opacity:1;fill-rule:nonzero;stroke:none"
         id="path326" />
      <path
         d="m 9300.43,3181.04 c 0,70.35 57.02,127.38 127.37,127.38 70.35,0 127.38,-57.03 127.38,-127.38 0,-70.35 -57.03,-127.38 -127.38,-127.38 -70.35,0 -127.37,57.03 -127.37,127.38"
         style="fill:#a2a6ac;fill-opacity:1;fill-rule:nonzero;stroke:none"
         id="path328" />
      <path
         d="m 11921,4410.42 -402.1,286.51 h -668.7 v 84 h 695.5 l 424.1,-302.1 -48.8,-68.41"
         style="fill:#a2a6ac;fill-opacity:1;fill-rule:nonzero;stroke:none"
         id="path330" />
      <path
         d="m 10850.2,4866.31 c -70.4,0 -127.4,-57.03 -127.4,-127.37 0,-70.36 57,-127.39 127.4,-127.39 70.3,0 127.3,57.03 127.3,127.39 0,70.34 -57,127.37 -127.3,127.37"
         style="fill:#a2a6ac;fill-opacity:1;fill-rule:nonzero;stroke:none"
         id="path332" />
      <path
         d="m 11945.4,4572 c -70.4,0 -127.4,-57.03 -127.4,-127.38 0,-70.34 57,-127.37 127.4,-127.37 70.3,0 127.4,57.03 127.4,127.37 0,70.35 -57.1,127.38 -127.4,127.38"
         style="fill:#a2a6ac;fill-opacity:1;fill-rule:nonzero;stroke:none"
         id="path334" />
      <path
         d="m 8316.12,6427 h -621.26 l -367.19,275.34 h -563.25 v 84 h 591.24 l 367.19,-275.35 h 593.27 V 6427"
         style="fill:#a2a6ac;fill-opacity:1;fill-rule:nonzero;stroke:none"
         id="path336" />
      <path
         d="m 8188.74,6468.99 c 0,-70.35 57.03,-127.37 127.38,-127.37 70.34,0 127.38,57.02 127.38,127.37 0,70.36 -57.04,127.38 -127.38,127.38 -70.35,0 -127.38,-57.02 -127.38,-127.38"
         style="fill:#a2a6ac;fill-opacity:1;fill-rule:nonzero;stroke:none"
         id="path338" />
      <path
         d="m 6637.05,6744.34 c 0,-70.35 57.02,-127.38 127.37,-127.38 70.36,0 127.38,57.03 127.38,127.38 0,70.35 -57.02,127.38 -127.38,127.38 -70.35,0 -127.37,-57.03 -127.37,-127.38"
         style="fill:#a2a6ac;fill-opacity:1;fill-rule:nonzero;stroke:none"
         id="path340" />
      <path
         d="M 8316.12,5787.03 H 7198.47 l -847.88,365.44 33.24,77.14 831.97,-358.58 h 1100.32 v -84"
         style="fill:#a2a6ac;fill-opacity:1;fill-rule:nonzero;stroke:none"
         id="path342" />
      <path
         d="m 6239.83,6191.04 c 0,-70.35 57.04,-127.38 127.38,-127.38 70.35,0 127.38,57.03 127.38,127.38 0,70.35 -57.03,127.38 -127.38,127.38 -70.34,0 -127.38,-57.03 -127.38,-127.38"
         style="fill:#a2a6ac;fill-opacity:1;fill-rule:nonzero;stroke:none"
         id="path344" />
      <path
         d="m 8188.74,5829.02 c 0,-70.35 57.03,-127.37 127.38,-127.37 70.34,0 127.38,57.02 127.38,127.37 0,70.35 -57.04,127.38 -127.38,127.38 -70.35,0 -127.38,-57.03 -127.38,-127.38"
         style="fill:#a2a6ac;fill-opacity:1;fill-rule:nonzero;stroke:none"
         id="path346" />
      <path
         d="m 6666.04,4084.26 -57.99,60.76 604.24,576.73 h 1112.06 v -84 h -1078.4 l -579.91,-553.49"
         style="fill:#a2a6ac;fill-opacity:1;fill-rule:nonzero;stroke:none"
         id="path348" />
      <path
         d="m 8324.35,4552.38 c 70.34,0 127.37,57.02 127.37,127.38 0,70.35 -57.03,127.37 -127.37,127.37 -70.36,0 -127.39,-57.02 -127.39,-127.37 0,-70.36 57.03,-127.38 127.39,-127.38"
         style="fill:#a2a6ac;fill-opacity:1;fill-rule:nonzero;stroke:none"
         id="path350" />
      <path
         d="m 6664.59,4032.98 c 70.34,0 127.37,57.03 127.37,127.38 0,70.34 -57.03,127.37 -127.37,127.37 -70.35,0 -127.38,-57.03 -127.38,-127.37 0,-70.35 57.03,-127.38 127.38,-127.38"
         style="fill:#a2a6ac;fill-opacity:1;fill-rule:nonzero;stroke:none"
         id="path352" />
      <path
         d="m 7253.5,4971.17 -48.74,68.41 424.01,302.1 h 695.58 v -83.99 H 7655.63 L 7253.5,4971.17"
         style="fill:#a2a6ac;fill-opacity:1;fill-rule:nonzero;stroke:none"
         id="path354" />
      <path
         d="m 8324.35,5427.06 c 70.34,0 127.37,-57.03 127.37,-127.37 0,-70.35 -57.03,-127.39 -127.37,-127.39 -70.36,0 -127.39,57.04 -127.39,127.39 0,70.34 57.03,127.37 127.39,127.37"
         style="fill:#a2a6ac;fill-opacity:1;fill-rule:nonzero;stroke:none"
         id="path356" />
      <path
         d="m 7229.12,5132.75 c 70.35,0 127.38,-57.03 127.38,-127.38 0,-70.34 -57.03,-127.37 -127.38,-127.37 -70.34,0 -127.37,57.03 -127.37,127.37 0,70.35 57.03,127.38 127.37,127.38"
         style="fill:#a2a6ac;fill-opacity:1;fill-rule:nonzero;stroke:none"
         id="path358" />
      <path
         d="m 8019.88,2616.5 c 0,70.36 57.03,127.39 127.39,127.39 70.34,0 127.37,-57.03 127.37,-127.39 0,-70.35 -57.03,-127.37 -127.37,-127.37 -70.36,0 -127.39,57.02 -127.39,127.37"
         style="fill:#a2a6ac;fill-opacity:1;fill-rule:nonzero;stroke:none"
         id="path360" />
      <path
         d="M 10830.8,4238.75 H 8333.9 v 2667.31 h 2496.9 V 4238.75"
         style="fill:#dfaaae;fill-opacity:1;fill-rule:nonzero;stroke:none"
         id="path362" />
      <path
         d="M 10500.4,4591.78 H 8664.38 V 6553.04 H 10500.4 V 4591.78"
         style="fill:#333c8b;fill-opacity:1;fill-rule:nonzero;stroke:none"
         id="path364" />
      <path
         d="m 8978.2,6292.9 h -143.99 v 127.45 H 8978.2 V 6292.9"
         style="fill:#d0d6db;fill-opacity:1;fill-rule:nonzero;stroke:none"
         id="path366" />
      <path
         d="m 9185.31,6292.9 h -143.99 v 127.45 h 143.99 V 6292.9"
         style="fill:#d0d6db;fill-opacity:1;fill-rule:nonzero;stroke:none"
         id="path368" />
      <path
         d="m 9392.42,6292.9 h -143.99 v 127.45 h 143.99 V 6292.9"
         style="fill:#d0d6db;fill-opacity:1;fill-rule:nonzero;stroke:none"
         id="path370" />
      <path
         d="m 9599.53,6292.9 h -144 v 127.45 h 144 V 6292.9"
         style="fill:#d0d6db;fill-opacity:1;fill-rule:nonzero;stroke:none"
         id="path372" />
      <path
         d="m 9806.63,6292.9 h -143.99 v 127.45 h 143.99 V 6292.9"
         style="fill:#d0d6db;fill-opacity:1;fill-rule:nonzero;stroke:none"
         id="path374" />
      <path
         d="m 10105.5,6292.9 h -143.96 v 127.45 h 143.96 V 6292.9"
         style="fill:#d0d6db;fill-opacity:1;fill-rule:nonzero;stroke:none"
         id="path376" />
      <path
         d="m 8978.2,5153.77 h -143.99 v 127.44 h 143.99 v -127.44"
         style="fill:#d0d6db;fill-opacity:1;fill-rule:nonzero;stroke:none"
         id="path378" />
      <path
         d="m 9185.31,5153.77 h -143.99 v 127.44 h 143.99 v -127.44"
         style="fill:#d0d6db;fill-opacity:1;fill-rule:nonzero;stroke:none"
         id="path380" />
      <path
         d="m 8978.2,4956.48 h -143.99 v 127.45 h 143.99 v -127.45"
         style="fill:#d0d6db;fill-opacity:1;fill-rule:nonzero;stroke:none"
         id="path382" />
      <path
         d="m 9185.31,4956.48 h -143.99 v 127.45 h 143.99 v -127.45"
         style="fill:#d0d6db;fill-opacity:1;fill-rule:nonzero;stroke:none"
         id="path384" />
      <path
         d="m 9392.42,5153.77 h -143.99 v 127.44 h 143.99 v -127.44"
         style="fill:#d0d6db;fill-opacity:1;fill-rule:nonzero;stroke:none"
         id="path386" />
      <path
         d="m 9599.53,5153.77 h -144 v 127.44 h 144 v -127.44"
         style="fill:#d0d6db;fill-opacity:1;fill-rule:nonzero;stroke:none"
         id="path388" />
      <path
         d="m 9898.44,5153.77 h -144.01 v 127.44 h 144.01 v -127.44"
         style="fill:#d0d6db;fill-opacity:1;fill-rule:nonzero;stroke:none"
         id="path390" />
      <path
         d="m 10105.5,5153.77 h -143.96 v 127.44 h 143.96 v -127.44"
         style="fill:#d0d6db;fill-opacity:1;fill-rule:nonzero;stroke:none"
         id="path392" />
      <path
         d="m 8978.2,6091.51 h -143.99 v 127.45 h 143.99 v -127.45"
         style="fill:#d0d6db;fill-opacity:1;fill-rule:nonzero;stroke:none"
         id="path394" />
      <path
         d="m 9185.31,6091.51 h -143.99 v 127.45 h 143.99 v -127.45"
         style="fill:#d0d6db;fill-opacity:1;fill-rule:nonzero;stroke:none"
         id="path396" />
      <path
         d="m 9392.42,6091.51 h -143.99 v 127.45 h 143.99 v -127.45"
         style="fill:#d0d6db;fill-opacity:1;fill-rule:nonzero;stroke:none"
         id="path398" />
      <path
         d="m 9599.53,6091.51 h -144 v 127.45 h 144 v -127.45"
         style="fill:#d0d6db;fill-opacity:1;fill-rule:nonzero;stroke:none"
         id="path400" />
      <path
         d="m 9806.63,6091.51 h -143.99 v 127.45 h 143.99 v -127.45"
         style="fill:#d0d6db;fill-opacity:1;fill-rule:nonzero;stroke:none"
         id="path402" />
      <path
         d="m 10013.7,6091.51 h -143.95 v 127.45 h 143.95 v -127.45"
         style="fill:#d0d6db;fill-opacity:1;fill-rule:nonzero;stroke:none"
         id="path404" />
      <path
         d="m 8978.2,4706.92 h -143.99 v 127.45 h 143.99 v -127.45"
         style="fill:#d0d6db;fill-opacity:1;fill-rule:nonzero;stroke:none"
         id="path406" />
      <path
         d="m 9185.31,4706.92 h -143.99 v 127.45 h 143.99 v -127.45"
         style="fill:#d0d6db;fill-opacity:1;fill-rule:nonzero;stroke:none"
         id="path408" />
      <path
         d="m 9392.42,4706.92 h -143.99 v 127.45 h 143.99 v -127.45"
         style="fill:#d0d6db;fill-opacity:1;fill-rule:nonzero;stroke:none"
         id="path410" />
      <path
         d="m 9691.33,4706.92 h -144 v 127.45 h 144 v -127.45"
         style="fill:#d0d6db;fill-opacity:1;fill-rule:nonzero;stroke:none"
         id="path412" />
      <path
         d="m 9898.44,4706.92 h -144.01 v 127.45 h 144.01 v -127.45"
         style="fill:#d0d6db;fill-opacity:1;fill-rule:nonzero;stroke:none"
         id="path414" />
      <path
         d="m 10105.5,4706.92 h -143.96 v 127.45 h 143.96 v -127.45"
         style="fill:#d0d6db;fill-opacity:1;fill-rule:nonzero;stroke:none"
         id="path416" />
      <path
         d="m 8978.2,5890.12 h -143.99 v 127.44 h 143.99 v -127.44"
         style="fill:#d0d6db;fill-opacity:1;fill-rule:nonzero;stroke:none"
         id="path418" />
      <path
         d="m 9041.32,5632.87 h -207.11 v 183.29 h 207.11 v -183.29"
         style="fill:#d0d6db;fill-opacity:1;fill-rule:nonzero;stroke:none"
         id="path420" />
      <path
         d="m 9041.32,5365.06 h -207.11 v 183.29 h 207.11 v -183.29"
         style="fill:#d0d6db;fill-opacity:1;fill-rule:nonzero;stroke:none"
         id="path422" />
      <path
         d="m 10315.3,6292.9 h -144 v 127.45 h 144 V 6292.9"
         style="fill:#d0d6db;fill-opacity:1;fill-rule:nonzero;stroke:none"
         id="path424" />
      <path
         d="m 10315.3,5153.77 h -144 v 127.44 h 144 v -127.44"
         style="fill:#d0d6db;fill-opacity:1;fill-rule:nonzero;stroke:none"
         id="path426" />
      <path
         d="m 10315.3,4956.48 h -144 v 127.45 h 144 v -127.45"
         style="fill:#d0d6db;fill-opacity:1;fill-rule:nonzero;stroke:none"
         id="path428" />
      <path
         d="m 10315.3,6091.51 h -144 v 127.45 h 144 v -127.45"
         style="fill:#d0d6db;fill-opacity:1;fill-rule:nonzero;stroke:none"
         id="path430" />
      <path
         d="m 10315.3,4706.92 h -144 v 127.45 h 144 v -127.45"
         style="fill:#d0d6db;fill-opacity:1;fill-rule:nonzero;stroke:none"
         id="path432" />
      <path
         d="m 10315.3,5890.12 h -144 v 127.44 h 144 v -127.44"
         style="fill:#d0d6db;fill-opacity:1;fill-rule:nonzero;stroke:none"
         id="path434" />
      <path
         d="m 10332.5,5632.87 h -207.1 v 183.29 h 207.1 v -183.29"
         style="fill:#d0d6db;fill-opacity:1;fill-rule:nonzero;stroke:none"
         id="path436" />
      <path
         d="m 10314.2,5365.06 h -207.1 v 183.29 h 207.1 v -183.29"
         style="fill:#d0d6db;fill-opacity:1;fill-rule:nonzero;stroke:none"
         id="path438" />
      <path
         d="m 9444.62,5365.06 h -207.11 v 183.29 h 207.11 v -183.29"
         style="fill:#d0d6db;fill-opacity:1;fill-rule:nonzero;stroke:none"
         id="path440" />
      <path
         d="m 9802.32,5365.06 h -207.1 v 183.29 h 207.1 v -183.29"
         style="fill:#d0d6db;fill-opacity:1;fill-rule:nonzero;stroke:none"
         id="path442" />
      <path
         d="m 9455.53,4900.62 h -207.1 v 183.31 h 207.1 v -183.31"
         style="fill:#d0d6db;fill-opacity:1;fill-rule:nonzero;stroke:none"
         id="path444" />
      <path
         d="m 9794.88,4900.62 h -207.11 v 183.31 h 207.11 v -183.31"
         style="fill:#d0d6db;fill-opacity:1;fill-rule:nonzero;stroke:none"
         id="path446" />
      <path
         d="m 10134.2,4900.62 h -207.08 v 183.31 h 207.08 v -183.31"
         style="fill:#d0d6db;fill-opacity:1;fill-rule:nonzero;stroke:none"
         id="path448" />
      <path
         d="m 9277.11,5890.12 h -143.99 v 127.44 h 143.99 v -127.44"
         style="fill:#d0d6db;fill-opacity:1;fill-rule:nonzero;stroke:none"
         id="path450" />
      <path
         d="m 9484.22,5890.12 h -144 v 127.44 h 144 v -127.44"
         style="fill:#d0d6db;fill-opacity:1;fill-rule:nonzero;stroke:none"
         id="path452" />
      <path
         d="m 9874.92,5890.12 h -143.99 v 127.44 h 143.99 v -127.44"
         style="fill:#d0d6db;fill-opacity:1;fill-rule:nonzero;stroke:none"
         id="path454" />
      <path
         d="m 10082,5890.12 h -143.96 v 127.44 H 10082 v -127.44"
         style="fill:#d0d6db;fill-opacity:1;fill-rule:nonzero;stroke:none"
         id="path456" />
      <path
         d="m 9257.31,5660.79 h -144 v 127.45 h 144 v -127.45"
         style="fill:#d0d6db;fill-opacity:1;fill-rule:nonzero;stroke:none"
         id="path458" />
      <path
         d="m 9464.41,5660.79 h -143.99 v 127.45 h 143.99 v -127.45"
         style="fill:#d0d6db;fill-opacity:1;fill-rule:nonzero;stroke:none"
         id="path460" />
      <path
         d="m 9671.52,5660.79 h -143.99 v 127.45 h 143.99 v -127.45"
         style="fill:#d0d6db;fill-opacity:1;fill-rule:nonzero;stroke:none"
         id="path462" />
      <path
         d="m 9878.63,5660.79 h -143.99 v 127.45 h 143.99 v -127.45"
         style="fill:#d0d6db;fill-opacity:1;fill-rule:nonzero;stroke:none"
         id="path464" />
      <path
         d="m 10067.4,5660.79 h -144.02 v 127.45 h 144.02 v -127.45"
         style="fill:#d0d6db;fill-opacity:1;fill-rule:nonzero;stroke:none"
         id="path466" />
      <path
         d="m 9979.07,5392.98 h -143.99 v 127.45 h 143.99 v -127.45"
         style="fill:#d0d6db;fill-opacity:1;fill-rule:nonzero;stroke:none"
         id="path468" />
      <path
         d="m 9896.79,8855.49 c 0,-73.33 -59.45,-132.78 -132.79,-132.78 -73.33,0 -132.78,59.45 -132.78,132.78 0,73.34 59.45,132.79 132.78,132.79 73.34,0 132.79,-59.45 132.79,-132.79"
         style="fill:#a2a6ac;fill-opacity:1;fill-rule:nonzero;stroke:none"
         id="path470" />
    </g>
  </g>
</svg>
